<?xml version="1.0" encoding="utf-8"?>
<!-- Generator: Adobe Illustrator 27.5.0, SVG Export Plug-In . SVG Version: 6.00 Build 0)  -->
<svg version="1.1" xmlns="http://www.w3.org/2000/svg" xmlns:xlink="http://www.w3.org/1999/xlink" x="0px" y="0px"
	 viewBox="0 0 1898 2372" style="enable-background:new 0 0 1898 2372;" xml:space="preserve">
<g id="Capa_3">
</g>
<g id="Capa_4">
	<g>
		<path style="fill:#B46BA9;" d="M1564.513,1274.95c-8.443-12.898-28.329-14.385-36.437,0
			c-13.578,24.103-17.703,61.232,5.421,81.754c5.12,4.545,10.983,6.956,16.712,7.539c0.107,11.258-0.955,22.27-2.834,31.981
			c-8.236,42.538-58.277,37.412-80.677,10.071c-21.209-25.903-27.579-61.722-32.529-93.951c-5.832-37.994-6.528-76.575-8.311-114.9
			c-3.388-72.644-14.359-144.283-34.981-214.1c-19.533-66.124-44.408-133.669-84.44-190.38
			c-13.012-18.435-27.93-36.249-44.268-53.015h0.005c3.057-0.185,6.122-0.278,9.184-0.278c12.656,0,25.303,1.592,37.54,4.866
			c17.054,4.561,33.503,12.184,51.342,12.184c3.154,0,6.348-0.238,9.595-0.772c10.128-1.672,19.551-7.049,24.835-15.845
			c12.951-21.518-5.744-45.762-24.332-60.844c-6.088-4.94-9.59-7.371-6.908-15.519c1.601-4.874,4.57-9.158,8.077-12.894
			c12.739-13.564,23.366-29.097,31.457-45.855c7.067-14.645,8.015-31.54,2.624-46.883
			c-26.317-74.876-84.877-144.993-140.657-199.785c-51.157-50.257-102.901-100.943-163.891-138.668
			c-50.147-31.02-107.524-61.548-164.963-61.543c-12.422,0.002-24.862,1.429-37.213,4.59
			c-176.282,45.078-324.91,164.632-446.374,300.114c-19.449,21.69-38.704,44.435-49.291,71.577
			c-10.587,27.142-11.169,59.816,5.412,83.761c16.591,23.966,48.762,38.038,54.757,66.566c5.99,28.492-17.936,59.609,3.529,85.296
			c8.408,10.062,21.271,15.214,34.382,15.214l0.181-0.005c32.034-0.137,55.326-20.94,80.21-37.363
			c7.463-4.923,15.481-9.536,23.818-13.074c0.457,0.178,0.914,0.352,1.374,0.523c-26.215,33.866-46.914,72.703-62.062,109.669
			c-31.554,77.011-41.527,161.711-45.546,244.281c-2.228,45.762-2.29,91.577-2.409,137.384c-0.111,42.48,2.647,84.969-0.852,127.357
			c-3.701,44.823-14.27,87.939-32.669,129.021c-16.869,37.68-58.463,78.238-90.713,29.405c-25.832-39.11-31.854-90.73-31.241-136.4
			c0.15-11.412,0.737-22.79,2.002-34.069c16.623,4.902,35.738-1.833,47.325-15.972c23.199-28.316,15.276-106.96-35.881-92.354
			c-19.758,5.642-28.594,24.271-32.123,42.895c-0.668,3.54-1.297,7.104-1.887,10.687c-5.152,8.251-6.233,18.312-3.709,27.666
			c-1.837,17.739-2.652,35.638-2.287,53.164c1.027,49.613,11.288,109.835,36.441,153.264c20.301,35.047,58.484,50.363,93.002,23.776
			c40.553-31.236,59.155-89.583,69.314-137.366c25.991-122.364,18.263-247.943,34.456-371.4
			c8.417-64.188,24.857-129.633,52.86-188.223c13.119-27.433,28.563-54.183,47.39-78.123c3.345-4.254,6.826-8.368,10.402-12.387
			c5.887,5.407,10.213,12.095,11.368,19.962c1.623,11.112-3.396,22.815,0.132,33.517c1.58,4.81,4.412,8.465,8.042,11.41
			c-25.468,71.048-38.464,147.023-42.361,222.011c-2.078,40.089-5.735,80.152-6.238,120.321
			c-0.507,40.336,2.55,80.452,5.219,120.656c2.589,39.031,7.067,78.569,5.175,117.679c-0.626,13.013-1.615,26.053-5.091,38.678
			c-4.632,16.834-10.693,12.162-19.083,2.748c-4.481-5.027-8.108-11.476-10.88-18.59c1.958-1.02,3.838-2.44,5.578-4.313
			c22.806-24.545,5.62-65.622-28.284-66.147c-12.44-0.19-18.457,11.248-16.834,22.091c4.46,29.771,12.193,58.542,30.605,82.87
			c10.957,14.482,28.214,30.464,44.748,12.722c16.489-17.694,17.817-55.423,19.48-78.37c2.559-35.228,0.106-69.879-1.914-105.067
			c-4.129-72.327-7.186-147.375-0.644-219.583c6.048-66.822,23.808-135.288,45.983-198.549c3.796-10.833,7.939-21.537,12.409-32.102
			c4.513,2.281,8.635,5.02,11.959,8.625c0.638,0.692,1.233,1.396,1.791,2.114c-2.43,9.481-4.74,18.994-6.926,28.535
			c-19.754,86.257-31.872,175.369-30.949,263.982c0.979,93.721,9.983,186.922,21.17,279.902
			c11.13,92.561,25.916,187.068,25.589,280.467c-0.07,20.777-1.676,55.736-23.913,66.336c-27.857,13.26-52.706-23.565-61.607-44.726
			c-7.785-18.52-12.96-38.445-15.642-58.506c20.101,2.658,40.271-12.813,43.923-33.217c6.211-34.677-50.377-86.99-65.684-37.866
			c-0.583,1.871-1.078,3.793-1.494,5.755c-1.799,2.09-3.243,4.604-4.178,7.554c-4.994,15.749-4.751,33.58,5.065,45.527
			c0.336,2.481,0.677,4.906,1.005,7.257c4.129,29.675,13.485,58.176,26.644,85.054c18.284,37.354,60.875,78.273,100.466,39.657
			c29.78-29.039,30.601-78.263,29.147-120.637c2.078,3.785,4.39,7.464,6.95,11.022c26.97,37.447,75.617,53.932,104.348,90.064
			c2.214,2.806,4.292,5.647,6.233,8.589c25.881,39.221,26.981,90.648,27.787,138.479c0.013,0.76,0.026,1.518,0.039,2.275
			c0.018,1.22,0.04,2.442,0.064,3.667c0.016,0.817,0.032,1.635,0.051,2.454c0.027,1.228,0.056,2.459,0.089,3.692
			c0.01,0.412,0.022,0.823,0.034,1.234c0.023,0.823,0.049,1.646,0.074,2.471c0.027,0.824,0.054,1.65,0.084,2.475
			c0.014,0.413,0.03,0.827,0.045,1.239c0.046,1.24,0.097,2.482,0.151,3.723c0.157,3.559,0.346,7.125,0.58,10.693
			c0.093,1.427,0.193,2.854,0.301,4.281c0.054,0.713,0.109,1.427,0.167,2.14c3.167,39.221,12.157,77.942,38.502,105.61
			c0.48,0.503,0.964,1.002,1.455,1.498c0.286,0.289,0.573,0.576,0.862,0.861c0.508,0.503,1.019,1,1.535,1.491
			c1.032,0.984,2.083,1.948,3.15,2.894c0.483,0.428,0.971,0.854,1.46,1.275c15.177,13.068,33.232,22.914,47.112,37.39
			c0.313,0.326,0.624,0.656,0.933,0.987c17.629,18.933,27.145,45.118,26.002,70.932c-0.037,0.832-0.086,1.665-0.145,2.497
			c-0.063,0.902-0.141,1.804-0.232,2.704c-0.09,0.901-0.194,1.8-0.311,2.698c-1.353,1.436-2.314,3.019-2.925,4.683
			c-0.137,0.37-0.254,0.745-0.357,1.122c-0.408,1.508-0.549,3.069-0.456,4.634c0.531,8.805,8.512,17.756,18.326,18.423
			c8.973,0.608,17.182-3.939,23.315-10.694c0.149-0.164,0.298-0.331,0.444-0.498c0.735-0.836,1.439-1.705,2.11-2.599
			c2.279-3.043,4.166-6.391,5.57-9.835c0.826-2.025,1.528-4.085,2.136-6.17c0.091-0.313,0.18-0.627,0.267-0.941
			c0.26-0.943,0.502-1.89,0.727-2.842c0.201-0.847,0.388-1.697,0.564-2.55c0.177-0.854,0.341-1.709,0.496-2.568
			c0.291-1.61,0.549-3.229,0.783-4.854c1.017-7.045,1.607-14.205,2.662-21.223c4.186-28.432,15.869-54.808,28.012-81.046
			c0.809-1.749,1.621-3.497,2.433-5.246c4.615-9.946,9.23-19.889,13.459-29.935c4.527-10.751,8.613-21.982,11.782-33.415
			c1.07,2.27,2.07,4.584,2.991,6.947c11.607,29.674,9.167,62.741,6.503,94.454c-2.303,28.183-4.654,56.327-7.001,84.515
			c63.919-24.439,107.145-94.454,100.281-162.528c-2.62-25.881-11.61-50.725-14.861-76.522c-3.251-25.837,0.225-51.492,16.26-71.957
			c28.278-36.146,39.155-83.526,33.885-128.988c5.481-2.778,10.781-6.745,15.754-12.044c28.501-30.362,30.504-82.141,18.598-119.875
			c-5.13-16.265-26.825-19.242-35.93-4.694c-18.06,28.849-21.888,65.9-1.941,94.714c1.448,2.089,3.194,3.747,5.122,5.006
			c-1.697,4.042-3.836,7.687-6.481,10.774c-7.844-30.211-23.11-58.338-45.405-80.189c-2.122-2.078-4.292-4.111-6.551-6.052
			c-14.152-12.344-30.906-23.248-42.811-37.296c-9.425-77.638-3.041-155.846,1.354-233.753
			c9.563-169.282,12.523-345.206-43.795-507.447c-3.732-10.747-7.749-21.387-12.045-31.911c9.608-6.664,16.879-15.348,20.1-27.38
			c0.739-2.748,1.208-5.582,1.581-8.439h0.002c2.025-0.357,3.947-1.019,5.786-1.901c5.104,9.021,9.73,18.261,13.777,27.618
			c30.477,70.465,38.846,143.537,42.692,219.622c3.802,75.229,2.391,150.838,3.798,226.116c0.648,34.765,1.685,69.689,7.256,104.061
			c4.588,28.346,10.177,66.645,27.041,90.806c14.306,20.49,46.313,24.875,63.989,6.356c21.139-22.14,11.293-56.491-11.902-72.093
			c-8.99-6.048-21.994-1.641-27.244,7.142c-9.427,15.78-7.568,33.488,3.238,47.106c-1.134,0.483-2.338,0.827-3.587,0.998
			c-11.544,1.571-17.406-10.895-21.835-19.215c-11.412-21.456-16.194-46.83-18.695-70.774c-3.984-38.161-3.3-77.439-0.714-115.689
			c5.43-80.417,7.892-162.44,2.929-242.971c-4.398-71.378-12.365-148.641-37.161-216.062c-2.316-6.295-4.756-12.474-7.367-18.531
			c6.277-3.507,12.805-6.559,19.518-9.135c29.247,25.592,54.559,54.427,75.148,87.549c44.501,71.572,73.253,153.189,89.301,235.653
			c16.432,84.445,9.127,171.179,25.815,255.296c11.315,57.016,46.067,130.247,115.358,124.878
			c33.38-2.589,53.024-28.496,57.461-59.936C1584.62,1355.879,1585.996,1307.792,1564.513,1274.95z M786.943,1464.515
			c-3.873,25.984-14.127,50.557-21.213,75.892c-3-34.914-6.797-69.762-10.636-104.671c-2.384-21.671-4.619-43.267-6.612-64.816
			c7.11,5.89,14.759,11.391,20.931,18.198C787.261,1408.911,790.922,1438.131,786.943,1464.515z M817.611,1080.101
			c-14.041,24.624-25.021,48.833-34.549,73.134c-15.175,38.664-26.814,77.693-41.692,119.381
			c-3.56-73.121-2.693-146.159,6.243-220.182c3.205-26.574,7.133-52.994,11.811-79.262c19.835,15.294,45.181,27.419,57.785,48.89
			C827.509,1039.54,827.646,1062.487,817.611,1080.101z M1152.785,1179.2c4.134,100.479-1.614,200.796-1.446,301.266
			c0.001,0.847,0.004,1.695,0.007,2.544c-34.874-35.766-106.721-44.38-125.172-93.707c-20.508-54.748,41.916-110.943,32.07-168.58
			c-4.473-26.291-23.807-49.19-23.988-75.887c-0.176-26.516,18.704-50.05,19.877-76.522c1.628-36.542-29.586-65.225-43.817-98.922
			c-12.623-29.756-10.88-64.964,3.414-93.871c11.094-10.47,24.027-18.775,42.299-25.157c10.364-3.627,21.768-6.61,33.035-9.862
			c6.904,18.241,13.146,36.727,18.802,55.289C1135.899,987.748,1148.837,1083.339,1152.785,1179.2z"/>
		<g>
			<path style="fill:#72367F;" d="M1307.17,1387.045c-8.99-6.048-21.994-1.641-27.244,7.142c-9.427,15.78-7.568,33.488,3.238,47.106
				c-1.134,0.483-2.338,0.827-3.587,0.998c-11.544,1.571-17.406-10.895-21.835-19.215c-11.412-21.456-16.194-46.83-18.695-70.774
				c-3.984-38.161-3.3-77.439-0.714-115.689c5.43-80.417,7.892-162.44,2.929-242.971c-4.398-71.378-12.365-148.641-37.161-216.062
				c-2.316-6.295-4.756-12.474-7.367-18.531c-7.839,4.38-15.272,9.475-22.167,15.25c-4.433,3.71-8.928,7.817-14.05,10.26
				c0,0-0.001,0-0.001,0.001c5.104,9.021,9.73,18.261,13.777,27.618c30.477,70.465,38.846,143.537,42.692,219.622
				c3.802,75.229,2.391,150.838,3.798,226.116c0.648,34.765,1.685,69.689,7.256,104.061c4.588,28.346,10.177,66.645,27.041,90.806
				c14.306,20.49,46.313,24.875,63.989,6.356C1340.211,1436.998,1330.365,1402.647,1307.17,1387.045z"/>
			<path style="fill:#72367F;" d="M703.677,871.631c3.796-10.833,7.939-21.537,12.409-32.102
				c-12.543-6.34-28.097-9.128-37.866-17.055c-25.468,71.048-38.464,147.023-42.361,222.011
				c-2.078,40.089-5.735,80.152-6.238,120.321c-0.507,40.336,2.55,80.452,5.219,120.656c2.589,39.031,7.067,78.569,5.175,117.679
				c-0.626,13.013-1.615,26.053-5.091,38.678c-4.632,16.834-10.693,12.162-19.083,2.748c-4.481-5.027-8.108-11.476-10.88-18.59
				c1.958-1.02,3.838-2.44,5.578-4.313c22.806-24.545,5.62-65.622-28.284-66.147c-12.44-0.19-18.457,11.248-16.834,22.091
				c4.46,29.771,12.193,58.542,30.605,82.87c10.957,14.482,28.214,30.464,44.748,12.722c16.489-17.694,17.817-55.423,19.48-78.37
				c2.559-35.228,0.106-69.879-1.914-105.067c-4.129-72.327-7.186-147.375-0.644-219.583
				C663.742,1003.359,681.501,934.892,703.677,871.631z"/>
			<g>
				<path style="fill:#9E549B;" d="M1190.704,1617.779c5.541,33.98,17.906,105.552,60.937,111.296
					c14.109,1.885,23.991-2.361,30.658-10.149c-7.844-30.211-23.11-58.338-45.405-80.189c-2.122-2.078-4.292-4.111-6.551-6.052
					c-14.152-12.344-30.906-23.248-42.811-37.296c0.453,3.73,0.941,7.458,1.469,11.185
					C1189.531,1610.31,1190.096,1614.045,1190.704,1617.779z"/>
				<path style="fill:#9E549B;" d="M1287.177,1745.045c-25.208,12.781-54.243,0.421-72.889-23.244
					c-32.35-41.058-48.652-91.767-56.45-143.765c-4.774-31.831-6.361-64.146-6.492-95.026
					c-34.874-35.766-106.721-44.38-125.172-93.707c-20.508-54.748,41.916-110.943,32.07-168.58
					c-4.473-26.291-23.807-49.19-23.988-75.887c-0.176-26.516,18.704-50.05,19.877-76.522c1.628-36.542-29.586-65.225-43.817-98.922
					c-12.623-29.756-10.88-64.964,3.414-93.871c11.094-10.47,24.027-18.775,42.299-25.157c10.364-3.627,21.768-6.61,33.035-9.862
					c-8.859-23.41-18.808-46.418-30.013-68.667c-7.508-14.909-16.004-29.196-24.791-43.292c-10.543-3.966-21.377-6.648-32.679-7.287
					c-1.689-0.093-3.366-0.141-5.033-0.141c-42.035,0-77.876,29.529-117.017,47.717c-7.662,3.56-15.452,6.687-23.437,9.069
					c-0.001,0-0.002,0-0.002,0.001c-3.375,1.01-6.775,1.883-10.223,2.602c-8.478,1.769-17.036,2.554-25.62,2.554
					c-3.635,0-7.279-0.141-10.918-0.41c-8.054,22.009-15.587,44.24-21.898,66.993c-11.322,40.805-20.607,81.978-28.009,123.532
					c19.835,15.294,45.181,27.419,57.785,48.89c10.3,17.477,10.437,40.425,0.402,58.039c-14.041,24.624-25.021,48.833-34.549,73.134
					c-15.175,38.664-26.814,77.693-41.692,119.381c1.594,32.719,4.072,65.456,7.112,98.303c7.11,5.89,14.759,11.391,20.931,18.198
					c17.848,19.793,21.509,49.014,17.53,75.397c-3.873,25.984-14.127,50.557-21.213,75.892c2.733,31.8,4.805,63.654,5.642,95.657
					c0.238,9.097,0.725,18.986,1.078,29.278c2.078,3.785,4.39,7.464,6.95,11.022c26.97,37.447,75.617,53.932,104.348,90.064
					c2.214,2.806,4.292,5.647,6.233,8.589c25.881,39.221,26.981,90.648,27.787,138.479c0.013,0.76,0.026,1.518,0.039,2.275
					c0.018,1.22,0.04,2.442,0.064,3.667c0.016,0.817,0.032,1.635,0.051,2.454c0.027,1.228,0.056,2.459,0.089,3.692
					c0.01,0.412,0.022,0.823,0.034,1.234c0.023,0.823,0.049,1.646,0.074,2.471c0.027,0.824,0.054,1.65,0.084,2.475
					c0.014,0.413,0.03,0.827,0.045,1.239c0.046,1.24,0.097,2.482,0.151,3.723c0.157,3.559,0.346,7.125,0.58,10.693
					c0.093,1.427,0.193,2.854,0.301,4.281c0.054,0.713,0.109,1.427,0.167,2.14c3.167,39.221,12.157,77.942,38.502,105.61
					c0.48,0.503,0.964,1.002,1.455,1.498c0.286,0.289,0.573,0.576,0.862,0.861c0.508,0.503,1.019,1,1.535,1.491
					c1.032,0.984,2.083,1.948,3.15,2.894c0.483,0.428,0.971,0.854,1.46,1.275c15.177,13.068,33.232,22.914,47.112,37.39
					c0.313,0.326,0.624,0.656,0.933,0.987c17.629,18.933,27.145,45.118,26.002,70.932c-0.037,0.832-0.086,1.665-0.145,2.497
					c-0.063,0.902-0.141,1.804-0.232,2.704c-0.09,0.901-0.194,1.8-0.311,2.698c-1.353,1.436-2.314,3.019-2.925,4.683
					c-0.137,0.37-0.254,0.745-0.357,1.122c-0.408,1.508-0.549,3.069-0.456,4.634c0.531,8.805,8.512,17.756,18.326,18.423
					c8.973,0.608,17.182-3.939,23.315-10.694c0.149-0.164,0.298-0.331,0.444-0.498c0.735-0.836,1.439-1.705,2.11-2.599
					c2.279-3.043,4.166-6.391,5.57-9.835c0.826-2.025,1.528-4.085,2.136-6.17c0.091-0.313,0.18-0.627,0.267-0.941
					c0.26-0.943,0.502-1.89,0.727-2.842c0.201-0.847,0.388-1.697,0.564-2.55c0.177-0.854,0.341-1.709,0.496-2.568
					c0.291-1.61,0.549-3.229,0.783-4.854c1.017-7.045,1.607-14.205,2.662-21.223c4.186-28.432,15.869-54.808,28.012-81.046
					c0.809-1.749,1.621-3.497,2.433-5.246c4.615-9.946,9.23-19.889,13.459-29.935c4.527-10.751,8.613-21.982,11.782-33.415
					c1.07,2.27,2.07,4.584,2.991,6.947c11.607,29.674,9.167,62.741,6.503,94.454c-2.303,28.183-4.654,56.327-7.001,84.515
					c63.919-24.439,107.145-94.454,100.281-162.528c-2.62-25.881-11.61-50.725-14.861-76.522
					c-3.251-25.837,0.225-51.492,16.26-71.957C1281.57,1837.886,1292.447,1790.507,1287.177,1745.045z"/>
				<path style="fill:#9E549B;" d="M1153.147,794.897c0.739-2.748,1.208-5.582,1.581-8.439l-0.832,0.128
					c-0.873,0.115-1.746,0.168-2.62,0.168c-5.426,0-10.776-2.06-15.876-4.103c-9.091-3.644-17.98-8.196-26.763-13.168l-0.004-0.002
					c8.94,17.216,17.084,34.835,24.414,52.796C1142.655,815.614,1149.926,806.93,1153.147,794.897z"/>
				<path style="fill:#9E549B;" d="M753.383,770.141c-2.876-0.997-5.739-2.024-8.58-3.083
					c-22.753-8.478-45.096-19.815-68.052-28.497c0,0-0.001,0-0.002-0.001c-6.17,6.193-12.248,12.48-18.071,19.025
					c5.887,5.408,10.213,12.096,11.368,19.962c1.623,11.112-3.396,22.815,0.132,33.517c1.58,4.81,4.412,8.465,8.042,11.41
					c9.769,7.927,25.323,10.715,37.866,17.055c4.513,2.281,8.635,5.02,11.959,8.625c0.638,0.692,1.233,1.396,1.791,2.114
					c6.912-26.97,14.798-53.69,23.548-80.127C753.384,770.141,753.383,770.141,753.383,770.141z"/>
				<path style="fill:#9E549B;" d="M605.491,734.789c-0.001,0-0.002,0.001-0.002,0.001c0.457,0.178,0.914,0.352,1.374,0.523
					c0.41-0.531,0.823-1.061,1.236-1.589c-0.001,0-0.003,0-0.006,0.002C607.225,734.07,606.356,734.423,605.491,734.789z"/>
			</g>
			<path style="fill:#8B4F99;" d="M647.526,729.456c-4.081-0.948-8.183-1.385-12.277-1.385c-9.173,0-18.319,2.187-27.15,5.653
				c-0.413,0.528-0.826,1.058-1.236,1.589c-26.215,33.866-46.914,72.703-62.062,109.669
				c-31.554,77.011-41.527,161.711-45.546,244.281c-2.228,45.762-2.29,91.577-2.409,137.384
				c-0.111,42.48,2.647,84.969-0.852,127.357c-3.701,44.823-14.27,87.939-32.669,129.021c-16.869,37.68-58.463,78.238-90.713,29.405
				c-25.832-39.11-31.854-90.73-31.241-136.4c0.15-11.412,0.737-22.79,2.002-34.069c16.623,4.902,35.738-1.833,47.325-15.972
				c23.199-28.316,15.276-106.96-35.881-92.354c-19.758,5.642-28.594,24.271-32.123,42.895c-0.668,3.54-1.297,7.104-1.887,10.687
				c-5.152,8.251-6.233,18.312-3.709,27.666c-1.837,17.739-2.652,35.638-2.287,53.164c1.027,49.613,11.288,109.835,36.441,153.264
				c20.301,35.047,58.484,50.363,93.002,23.776c40.553-31.236,59.155-89.583,69.314-137.366
				c25.991-122.364,18.263-247.943,34.456-371.4c8.417-64.188,24.857-129.633,52.86-188.223
				c13.119-27.433,28.563-54.183,47.39-78.123c3.345-4.254,6.826-8.368,10.402-12.388c5.823-6.545,11.9-12.832,18.071-19.025
				C667.142,734.927,657.425,731.759,647.526,729.456z"/>
			<path style="fill:#8B4F99;" d="M759.424,973.172c7.402-41.553,16.687-82.727,28.009-123.532
				c6.31-22.753,13.844-44.984,21.898-66.993c-18.929-1.398-37.809-6.242-55.947-12.506c-8.751,26.437-16.636,53.156-23.548,80.127
				c-2.43,9.481-4.74,18.994-6.926,28.535c-19.754,86.257-31.872,175.369-30.949,263.982c0.979,93.721,9.983,186.922,21.17,279.902
				c11.13,92.561,25.916,187.068,25.589,280.467c-0.07,20.777-1.676,55.736-23.913,66.336
				c-27.857,13.26-52.706-23.565-61.607-44.726c-7.785-18.52-12.96-38.445-15.642-58.506c20.101,2.658,40.271-12.813,43.923-33.217
				c6.211-34.677-50.377-86.99-65.684-37.866c-0.583,1.871-1.078,3.793-1.494,5.755c-1.799,2.09-3.243,4.604-4.178,7.554
				c-4.994,15.749-4.751,33.58,5.065,45.527c0.336,2.481,0.677,4.906,1.005,7.257c4.129,29.675,13.485,58.176,26.644,85.054
				c18.284,37.354,60.875,78.273,100.466,39.657c29.78-29.039,30.601-78.263,29.147-120.637c-0.353-10.292-0.84-20.181-1.078-29.278
				c-0.837-32.003-2.91-63.857-5.642-95.657c-3-34.914-6.797-69.762-10.636-104.671c-2.384-21.671-4.619-43.267-6.612-64.816
				c-3.04-32.847-5.519-65.584-7.112-98.303c-3.56-73.121-2.693-146.159,6.243-220.182
				C750.817,1025.861,754.746,999.441,759.424,973.172z"/>
			<path style="fill:#8B4F99;" d="M1321.529,1613.125c-5.13-16.265-26.825-19.242-35.93-4.694
				c-18.06,28.849-21.888,65.9-1.941,94.714c1.448,2.089,3.194,3.747,5.122,5.006c-1.697,4.042-3.836,7.687-6.481,10.774
				c-6.668,7.788-16.549,12.034-30.658,10.149c-43.031-5.743-55.396-77.316-60.937-111.296c-0.608-3.734-1.173-7.469-1.702-11.206
				c-0.528-3.727-1.016-7.455-1.469-11.185c-9.425-77.638-3.041-155.846,1.354-233.753c9.563-169.282,12.523-345.206-43.795-507.447
				c-3.732-10.747-7.749-21.387-12.045-31.911c-7.329-17.961-15.474-35.58-24.414-52.796
				c-24.732-13.988-48.683-31.278-74.374-40.939c8.787,14.096,17.283,28.383,24.791,43.292
				c11.205,22.249,21.154,45.258,30.013,68.667c6.904,18.241,13.146,36.727,18.802,55.289
				c28.033,91.957,40.971,187.548,44.919,283.409c4.134,100.479-1.614,200.796-1.446,301.266c0.001,0.847,0.004,1.695,0.007,2.544
				c0.13,30.88,1.717,63.194,6.492,95.026c7.798,51.998,24.099,102.707,56.45,143.765c18.646,23.664,47.681,36.024,72.889,23.244
				c5.481-2.778,10.781-6.745,15.754-12.044C1331.432,1702.639,1333.435,1650.859,1321.529,1613.125z"/>
			<path style="fill:#8B4F99;" d="M1564.513,1274.95c-8.443-12.898-28.329-14.385-36.437,0
				c-13.578,24.103-17.703,61.232,5.421,81.754c5.12,4.545,10.983,6.956,16.712,7.539c0.107,11.258-0.955,22.27-2.834,31.981
				c-8.236,42.538-58.277,37.412-80.677,10.071c-21.209-25.903-27.579-61.722-32.529-93.951c-5.832-37.994-6.528-76.575-8.311-114.9
				c-3.388-72.644-14.359-144.283-34.981-214.1c-19.533-66.124-44.408-133.669-84.44-190.38
				c-13.012-18.435-27.93-36.249-44.268-53.015c-15.685,0.954-31.246,4.328-45.916,9.961c0,0-0.001,0-0.002,0.001
				c29.247,25.592,54.559,54.427,75.148,87.549c44.501,71.572,73.253,153.189,89.301,235.653
				c16.432,84.445,9.127,171.179,25.815,255.296c11.315,57.016,46.067,130.247,115.358,124.878
				c33.38-2.589,53.024-28.496,57.461-59.936C1584.62,1355.879,1585.996,1307.792,1564.513,1274.95z"/>
			<path style="fill:#CFA0CA;" d="M1155.892,776.654c-0.012,0.09-0.025,0.181-0.037,0.271c-0.031,0.233-0.06,0.467-0.09,0.701
				c-0.013,0.113-0.028,0.225-0.042,0.338c-0.04,0.317-0.077,0.634-0.114,0.951c-0.024,0.208-0.048,0.415-0.073,0.623
				c-0.012,0.104-0.024,0.209-0.036,0.313c-0.252,2.199-0.482,4.41-0.769,6.607c2.025-0.357,3.947-1.019,5.786-1.901
				c0-0.001,0.001-0.001,0.001-0.001C1159.019,781.906,1157.471,779.269,1155.892,776.654z"/>
			<path style="fill:#CFA0CA;" d="M1371.508,650.848c12.739-13.564,23.366-29.097,31.457-45.855
				c7.067-14.645,8.015-31.54,2.624-46.883c-26.317-74.876-84.877-144.993-140.657-199.785
				c-51.157-50.257-102.901-100.943-163.891-138.668c-50.147-31.02-107.524-61.548-164.963-61.543
				c-12.422,0.002-24.862,1.429-37.213,4.59c-176.282,45.078-324.91,164.632-446.374,300.114
				c-19.449,21.69-38.704,44.435-49.291,71.577c-10.587,27.142-11.169,59.816,5.412,83.761
				c16.591,23.966,48.762,38.038,54.757,66.566c5.99,28.492-17.936,59.609,3.529,85.296c8.408,10.062,21.271,15.214,34.382,15.214
				l0.181-0.005c32.034-0.137,55.326-20.94,80.21-37.363c7.463-4.923,15.481-9.536,23.818-13.074c0,0,0.001-0.001,0.002-0.001
				c-3.008-1.164-5.951-2.47-8.805-3.992c-21.721-11.579-33.839-36.327-33.9-60.707c-0.026-9.74,1.877-19.418,5.858-28.177
				c-7.821-1.237-15.837-1.188-23.626,0.289c-10.163,1.928-20.287,6.118-30.504,4.491c-10.287-1.637-18.682-8.875-26.238-16.044
				c-23.08-21.893-44.082-45.978-62.631-71.824c7.129-29.167,41.898-47.182,71.872-45.347c29.97,1.835,57.448,16.273,85.252,27.615
				c71.281,29.074,150.361,38.775,226.557,27.786c30.022-4.332,58.965-4.901,88.414-12.176c20.428-5.046,41.307-9.766,62.305-8.394
				c40.764,2.664,77.66,27.923,118.481,29.485c24.037,0.922,33.671-7.508,57.673-5.964c52.423,3.366,105.305-0.498,156.683-11.443
				c11.495-2.448,23.243-5.267,34.871-3.582c11.633,1.685,23.313,9.092,26.141,20.499c1.967,7.931-0.57,16.18-1.752,24.266
				c-2.179,14.941,0.278,30.482-3.728,45.039c-6.616,24.046-24.593,47.567-49.035,52.525c-5.156,1.046-10.324,1.513-15.495,1.534
				c-8.113,8.241-18.149,14.955-28.56,19.878c-2.96,1.398-5.959,2.686-8.99,3.895c5.413,5.06,10.693,10.23,15.841,15.51
				c3.057-0.185,6.122-0.278,9.184-0.278c12.656,0,25.303,1.592,37.54,4.866c17.054,4.561,33.503,12.184,51.342,12.184
				c3.154,0,6.348-0.238,9.595-0.772c10.128-1.672,19.551-7.049,24.835-15.845c12.951-21.518-5.744-45.762-24.332-60.844
				c-6.088-4.94-9.59-7.371-6.908-15.519C1365.032,658.868,1368.001,654.584,1371.508,650.848z"/>
			<path style="fill:#CFA0CA;" d="M1211.565,745.862c-3.004-2.554-6.044-5.069-9.114-7.548c-4.385,1.315-8.752,2.685-13.077,4.176
				c-0.009,0.003-0.017,0.006-0.025,0.008c-0.101,0.035-0.202,0.071-0.303,0.107c2.731,5.377,5.284,10.855,7.688,16.443
				c6.277-3.507,12.805-6.559,19.518-9.134c0.001-0.001,0.002-0.001,0.002-0.001C1214.702,748.553,1213.14,747.203,1211.565,745.862
				z"/>
			<path style="fill:#A65F9F;" d="M1187.244,743.235c-0.018,0.007-0.036,0.013-0.055,0.019c-0.717,0.255-1.433,0.514-2.148,0.777
				c-9.352,3.436-19.022,7.998-24.214,16.493c-0.132,0.216-0.261,0.433-0.387,0.653c-0.024,0.042-0.048,0.085-0.073,0.128
				c-0.127,0.222-0.25,0.446-0.37,0.671c0,0.001,0,0.001-0.001,0.002c-0.12,0.227-0.237,0.456-0.349,0.685
				c-0.016,0.029-0.03,0.059-0.044,0.087c-0.115,0.233-0.225,0.467-0.333,0.702c-0.004,0.011-0.009,0.021-0.013,0.031
				c-0.225,0.491-0.435,0.987-0.631,1.488c-0.003,0.01-0.007,0.019-0.011,0.029c-1.443,3.684-2.185,7.625-2.723,11.654
				c1.579,2.616,3.126,5.253,4.626,7.903c5.121-2.444,9.616-6.551,14.05-10.26c6.895-5.774,14.328-10.869,22.167-15.25
				c-2.404-5.589-4.957-11.066-7.688-16.443C1188.445,742.812,1187.844,743.022,1187.244,743.235z"/>
			<path style="fill:#A65F9F;" d="M856.094,777.901c7.985-2.382,15.775-5.51,23.437-9.07c-7.085-25.824-16.281-50.996-28.433-75.225
				c-3.017,1.027-6.037,2.065-9.057,3.101c-1.259,3.365-2.527,6.726-3.804,10.084C844.973,730.48,850.915,754.155,856.094,777.901z"
				/>
			<path style="fill:#AE69A8;" d="M702.542,712.864c-19.766-3.815-38.741-10.544-56.028-20.44
				c-13.893,12.368-26.701,26.334-38.419,41.303c0.002-0.001,0.004-0.001,0.006-0.002c8.83-3.466,17.977-5.653,27.15-5.653
				c4.094,0,8.196,0.437,12.276,1.385c9.899,2.303,19.616,5.47,29.223,9.104c0.001,0.001,0.002,0.001,0.002,0.001
				C685.316,729.967,694.058,721.547,702.542,712.864z"/>
			<path style="fill:#AE69A8;" d="M842.041,696.708c-17.198,5.9-34.465,11.748-51.939,15.258c-5.76,1.158-11.561,2.106-17.381,2.842
				c-4.624,12.549-8.99,25.128-13.294,37.516c-2.055,5.924-4.071,11.862-6.043,17.818c0,0,0.001,0,0.001,0.001
				c18.138,6.263,37.018,11.107,55.946,12.505c9.303-25.426,19.3-50.557,28.907-75.856
				C839.513,703.434,840.781,700.072,842.041,696.708z"/>
			<path style="fill:#AE69A8;" d="M1007.836,686.581c8.637,14.081,17.673,27.928,26.424,41.962
				c25.69,9.66,49.642,26.951,74.374,40.939l0.004,0.002c-5.836-11.236-12.012-22.299-18.519-33.181
				c-6.204-10.37-12.733-20.828-19.705-31.055c-10.277-3.021-20.521-7.131-30.261-10.746
				C1029.239,690.451,1018.538,688.144,1007.836,686.581z"/>
			<path style="fill:#AE69A8;" d="M1246.335,724.441c-16.908-15.803-35.046-30.46-53.955-43.563
				c-18.645-2.591-37.408-1.36-52.85,8.723c-0.077,0.05-0.153,0.101-0.229,0.152c20.63,16.674,42.512,31.869,63.151,48.561
				c3.07,2.479,6.109,4.994,9.114,7.548c1.575,1.341,3.136,2.691,4.689,4.049c14.669-5.633,30.231-9.007,45.915-9.961h0.006
				C1257.027,734.67,1251.747,729.5,1246.335,724.441z"/>
			<path style="fill:#9A4292;" d="M1192.38,680.878c9.048,1.257,18.068,3.414,26.667,5.895
				c21.259,6.141,43.082,13.982,64.838,13.895c5.171-0.021,10.34-0.488,15.495-1.534c24.442-4.958,42.418-28.479,49.035-52.525
				c4.005-14.557,1.548-30.098,3.728-45.039c1.182-8.086,3.718-16.335,1.751-24.266c-2.827-11.407-14.509-18.814-26.141-20.499
				c-11.628-1.685-23.375,1.134-34.871,3.582c-51.378,10.944-104.26,14.809-156.683,11.443c-24.001-1.543-33.635,6.886-57.672,5.964
				c-40.822-1.562-77.718-26.821-118.482-29.485c-20.997-1.372-41.876,3.348-62.304,8.395c-29.45,7.274-58.392,7.843-88.415,12.175
				c-76.195,10.988-155.276,1.288-226.557-27.786c-27.804-11.341-55.282-25.779-85.252-27.615
				c-29.974-1.835-64.744,16.18-71.872,45.347c18.549,25.846,39.551,49.931,62.631,71.824c7.556,7.169,15.951,14.407,26.239,16.044
				c10.216,1.628,20.34-2.563,30.503-4.49c7.79-1.478,15.806-1.527,23.627-0.289c15.394,2.436,30.035,9.863,40.711,21.242
				c11.059,11.787,23.589,21.502,37.158,29.268c17.288,9.896,36.263,16.625,56.028,20.44c22.799,4.399,46.648,4.919,70.178,1.944
				c5.821-0.736,11.622-1.684,17.381-2.842c17.474-3.51,34.741-9.357,51.939-15.258c3.02-1.036,6.04-2.074,9.057-3.101
				c31.979-10.886,63.81-20.565,96.392-14.297c21.009,4.042,40.68,4.4,60.346,7.272c10.702,1.563,21.402,3.87,32.317,7.921
				c9.74,3.615,19.984,7.725,30.261,10.746c17.215,5.06,34.521,7.058,49.693-1.46c6.916-3.885,12.574-9.667,19.193-14.035
				c0.077-0.051,0.152-0.102,0.229-0.152C1154.971,679.518,1173.734,678.287,1192.38,680.878z"/>
			<path style="fill:#9A4292;" d="M1233.78,487.15c0.644,15.277,14.237,32.138,25.431,39.919
				c16.661,11.579,40.226,11.39,52.441-6.427c23.803-34.721-19.079-102.341-57.818-105.592
				c-20.031-1.681-34.359,15.413-33.79,34.725C1220.395,461.77,1226.208,475.065,1233.78,487.15z"/>
			<path style="fill:#9A4292;" d="M1175.477,507.077c0.072,0.263,0.155,0.524,0.243,0.783c-2.543,14.452,5.37,29.978,19.088,37.105
				c8.434,4.385,19.736,0.834,22.224-9.043c2.995-11.884,1.897-24.266-3.767-35.206c-6.837-13.212-21.28-19.701-33.724-9.008
				C1175.349,495.307,1174.083,501.951,1175.477,507.077z"/>
			<path style="fill:#9A4292;" d="M1158.132,393.249c0.176,0.741,0.459,1.442,0.851,2.108c0.64,1.967,1.734,3.67,3.282,5.104
				c1.125,1.138,2.431,2.108,3.772,3l0.878,0.49c2.735,1.306,5.122,2.223,8.258,2.223c4.111,0,9.043-1.822,11.721-5.143
				c0.776-1.001,1.548-2.003,2.32-3.004c1.085-1.703,1.672-3.542,1.76-5.514c0.353-1.315,0.353-2.633,0-3.948
				c-0.06-1.362-0.359-2.66-0.895-3.893c-0.155-0.51-0.44-1.16-1.213-2.357c-0.825-1.072-1.654-2.14-2.479-3.212
				c-0.993-1.023-2.096-1.87-3.318-2.541c-0.132-0.067-0.262-0.134-0.39-0.203c-0.406-0.303-0.812-0.581-1.198-0.803
				c-0.436-0.25-0.918-0.477-1.418-0.69l-0.17-0.13c-1.186-0.503-2.368-1.001-3.551-1.5c-1.319-0.176-2.638-0.352-3.953-0.529
				c-2.047-0.079-3.957,0.349-5.73,1.28c-1.257,0.353-2.351,0.988-3.278,1.91c-1.116,0.661-2.007,1.548-2.668,2.665
				c-0.918,0.93-1.557,2.025-1.91,3.282c-0.93,1.773-1.359,3.679-1.279,5.726C1157.276,389.451,1157.735,391.423,1158.132,393.249z"
				/>
			<path style="fill:#9A4292;" d="M520.517,498.038c18.54,3.101,38.312-14.937,49.146-28.02
				c10.631-12.841,22.96-34.787,17.256-52.088c-7.265-22.025-34.028-16.674-49.327-7.397c-7.884,4.779-14.659,11.23-19.812,18.767
				c-6.187,6.584-10.924,14.768-14.556,23.669C496.282,469.978,498.333,494.32,520.517,498.038z"/>
			<path style="fill:#9A4292;" d="M616.158,372.724c-1.368-3.719-2.475-6.198-5.346-9.043c-2.501-2.479-5.774-4.421-9.176-5.355
				c-8.69-2.396-18.046,1.508-22.576,9.272c-1.963,3.357-2.801,6.978-2.841,10.843c-0.053,4.985,2.351,10.08,5.933,13.494
				c4.592,4.367,10.794,6.714,17.164,4.972c1.581-0.433,3.044-1.074,4.388-1.917c2.119-0.707,3.848-1.672,5.599-3.024
				c0.798-0.618,1.513-1.225,2.169-1.877c-0.04,0.051-0.078,0.102-0.118,0.152l0.239-0.251c2.201-2.214,3.723-4.826,4.565-7.83
				C617.005,379.014,617.005,375.868,616.158,372.724z"/>
			<path style="fill:#9A4292;" d="M606.131,499.092c-0.547-1.689-1.491-3.154-2.819-4.389c-0.922-0.711-1.84-1.421-2.762-2.131
				l-3.255-1.377c-0.622-0.19-1.257-0.282-1.919-0.273c-1.835-0.41-3.67-0.326-5.501,0.247c-1.098,0.463-2.201,0.927-3.299,1.389
				l-0.146,0.088l-0.371,0.221c-0.52,0.309-1.036,0.617-1.557,0.926c-2.166,1.28-3.887,3.004-5.17,5.17
				c-1.301,2.246-1.958,4.672-1.967,7.274c0.172,1.275,0.344,2.554,0.516,3.829c0.684,2.444,1.919,4.561,3.705,6.361
				c1.306,1.402,2.854,2.4,4.641,2.977c1.716,0.904,3.564,1.319,5.549,1.244c5.108,0,9.846-2.766,12.444-7.138
				c0.296-0.494,0.587-0.988,0.883-1.482c0.737-1.239,1.389-2.342,1.742-3.891c0.163-1.222,0.326-2.444,0.494-3.666
				c0.022-1.28-0.145-2.515-0.507-3.71C606.66,500.186,606.426,499.63,606.131,499.092z"/>
			<g>
				<path style="fill:#FFFFFF;" d="M726.341,427.859c22.056,14.05,50.813,10.234,76.072,3.441
					c35.647-9.595,70.342-24.363,99.385-47.156c29.039-22.793,52.185-54.078,61.307-89.853
					c14.495-56.821-33.614-101.917-90.541-94.044c-55.732,7.711-112.659,54.012-145.121,97.577
					c-14.574,19.564-26.657,41.942-28.858,66.235C696.385,388.352,705.767,414.749,726.341,427.859z"/>
				<path style="fill:#FFFFFF;" d="M669.692,434.243c-8.043,0.678-15.299,4.9-18.201,12.544c-4.091,2.833-7.659,6.188-10.847,10.694
					c-5.395,7.632-7.719,17.667-5.845,26.873c3.352,16.459,21.257,30.716,38.4,25.753c16.608-4.804,24.879-23.366,25.722-39.498
					C699.808,453.674,689.512,432.57,669.692,434.243z"/>
			</g>
			<path style="fill:#FFFFFF;" d="M348.594,1281.863c6.154,1.774,10.861-2.801,12.06-8.447c0.375-1.747,0.948-3.361,1.496-5.051
				c0.246-0.776,0.419-1.566,0.657-2.343c0.155-0.512,1.279-3.088,0.309-0.979c2.421-5.241,1.658-12.162-3.97-15.135
				c-4.879-2.581-12.546-1.641-15.135,3.965c-1.981,4.283-3.767,8.664-3.432,13.485
				C340.975,1273.09,342.153,1280.006,348.594,1281.863z"/>
			<path style="fill:#FFFFFF;" d="M647.539,1621.309c-0.344,3.043,0.079-0.013,0.22-0.556c0.238-0.935,0.582-1.835,0.838-2.766
				c0.256-0.94,0.406-1.901,0.688-2.837c0.234-0.759,1.469-3.441,0.11-0.503c2.854-6.18,1.954-14.337-4.68-17.844
				c-5.748-3.035-14.786-1.932-17.839,4.68c-1.716,3.71-3.119,7.248-3.661,11.301c-0.521,3.873,0.097,7.901,1.054,11.672
				c1.447,5.726,7.327,9.246,13,8.487C643.507,1632.107,646.869,1627.259,647.539,1621.309z"/>
			<path style="fill:#FFFFFF;" d="M1545.549,1283.398c-2.92,0.808-5.673,2.925-7.203,5.541c-2.011,3.441-2.457,8.77,0,12.167
				c0.878,1.209,1.738,2.426,2.633,3.622c0.82,1.103,1.601,2.329,2.559,3.304c1.456,1.491,3.242,2.228,5.14,2.986
				c0.816,0.11,1.632,0.221,2.448,0.326c1.266,0.048,2.453-0.216,3.547-0.789c1.866-0.79,3.322-2.02,4.407-3.772
				c2.223-3.587,1.786-7.742,1.725-11.76C1560.689,1287.205,1553.155,1281.307,1545.549,1283.398z"/>
			<path style="fill:#FFFFFF;" d="M1298.674,1635.169c0.6,1.015,1.402,1.822,2.417,2.417c1.05,0.613,2.184,0.918,3.401,0.922
				c1.217-0.004,2.351-0.309,3.401-0.922c1.015-0.596,1.822-1.403,2.422-2.417c0.282-0.622,0.569-1.248,0.851-1.87
				c0.697-1.209,1.05-2.505,1.054-3.904c-0.005-1.394-0.357-2.695-1.054-3.9c-1.376-2.352-3.948-3.829-6.674-3.829
				c-2.722,0-5.298,1.478-6.674,3.829c-0.697,1.204-1.05,2.506-1.054,3.9c0.004,1.398,0.358,2.695,1.054,3.904
				C1298.105,1633.92,1298.387,1634.547,1298.674,1635.169z"/>
			<path style="fill:#8B4F99;" d="M600.908,1375.082c-0.326-1.165-0.917-2.179-1.773-3.039c-0.613-1.032-1.438-1.857-2.47-2.47
				c-0.86-0.856-1.875-1.447-3.044-1.774c-1.641-0.86-3.41-1.257-5.307-1.186c-1.222,0.163-2.444,0.326-3.665,0.494
				c-1.094,0.463-2.193,0.927-3.291,1.389c-0.931,0.715-1.858,1.434-2.788,2.153c-0.719,0.931-1.438,1.862-2.157,2.788l-1.39,3.295
				c-0.573,1.831-0.653,3.661-0.243,5.492c0,1.244,0.318,2.404,0.94,3.481c0.556,1.707,1.504,3.185,2.85,4.433
				c0.626,0.71,1.257,1.416,1.888,2.126c1.006,1.081,2.197,1.849,3.573,2.294c1.328,0.697,2.753,1.015,4.283,0.957
				c2.845-0.123,5.898-1.054,7.857-3.251c0.626-0.71,1.257-1.416,1.888-2.126c0.719-0.931,1.433-1.858,2.152-2.788
				c0.464-1.098,0.927-2.197,1.39-3.29c0.573-1.835,0.657-3.666,0.247-5.496C601.843,1377.318,601.53,1376.158,600.908,1375.082z"/>
			<path style="fill:#8B4F99;" d="M1288.475,1412.613c0.476,1.125,0.953,2.254,1.43,3.379c1.257,2.126,2.946,3.82,5.073,5.077
				l0.631,0.384c3.882,2.351,9.144,2.351,13.027,0l0.631-0.384c1.649-0.886,2.973-2.104,3.97-3.643
				c0.878-0.882,1.482-1.923,1.818-3.123c0.886-1.685,1.292-3.502,1.221-5.452c-0.172-1.253-0.34-2.506-0.507-3.763
				c-0.476-1.125-0.953-2.25-1.425-3.379c-0.891-1.649-2.104-2.973-3.648-3.97c-0.882-0.878-1.923-1.482-3.119-1.817
				c-1.689-0.887-3.507-1.293-5.452-1.222c-1.257,0.167-2.51,0.34-3.763,0.507c-1.13,0.477-2.254,0.949-3.384,1.425
				c-1.646,0.891-2.969,2.104-3.97,3.643c-0.873,0.887-1.483,1.928-1.818,3.123c-0.886,1.689-1.292,3.507-1.217,5.452
				C1288.14,1410.103,1288.308,1411.36,1288.475,1412.613z"/>
			<g>
				<path style="fill:#8B3E87;" d="M1193.62,1611.634c11.747,13.101,26.741,27.963,43.274,27.103
					c-2.122-2.078-4.292-4.112-6.551-6.053c-14.152-12.343-30.906-23.247-42.811-37.296c0.453,3.729,0.94,7.458,1.469,11.184
					C1190.557,1608.251,1192.096,1609.94,1193.62,1611.634z"/>
				<path style="fill:#8B3E87;" d="M1026.174,1389.304c-20.508-54.748,41.915-110.943,32.07-168.58
					c-4.473-26.291-23.807-49.19-23.988-75.887c-0.177-26.516,18.704-50.05,19.877-76.522c1.628-36.543-29.586-65.225-43.817-98.922
					c-12.623-29.756-10.88-64.964,3.414-93.871c-12.464,11.762-22.607,26.255-35.391,43.821
					c-17.892,24.619-36.728,52.851-31.937,82.883c6.414,39.89,52.264,65.595,55.785,105.887
					c3.891,44.629-45.895,78.233-51.18,122.051c-0.317,2.078-0.45,4.203-0.494,6.369c-0.635,33.79,26.609,60.752,41.285,91.203
					c17.389,36.044,16.802,80.223-1.628,115.725c-2.434,4.696-5.149,9.233-8.036,13.671c11.478,30.7,29.113,59.356,47.327,86.852
					c7.151,10.796,14.34,21.577,21.454,32.408c3.306-3.529,7.03-6.701,11.215-9.429c21.183-13.869,49.596-12.603,72.724-2.395
					c8.172,3.622,15.796,8.215,22.984,13.469c-4.774-31.831-6.361-64.145-6.491-95.026
					C1116.472,1447.244,1044.625,1438.631,1026.174,1389.304z"/>
				<path style="fill:#8B3E87;" d="M938.721,1525.179c-12.921,34.827-3.657,76.791,22.722,102.945
					c19.688,19.568,47.997,31.24,69.442,48.151c-1.29-7.872-2.341-14.953-2.589-20.51c-1.061-22.913,2.237-47.917,13.544-67.158
					c-26.39-37.712-53.38-75.892-69.4-117.547C959.776,1488.409,946.165,1505.154,938.721,1525.179z"/>
				<path style="fill:#72367F;" d="M982.133,1457.132c-3.078,4.732-6.352,9.351-9.693,13.928
					c16.02,41.655,43.01,79.835,69.4,117.547c15.818,22.602,31.42,45.036,44.318,67.948
					c56.221,99.884,90.17,212.715,100.938,326.794c0.326,3.476,5.748,3.569,5.505,0c-7.213-107.017-35.63-207.995-81.877-304.671
					c-17.094-35.736-38.103-69.239-59.81-102.285c-7.114-10.831-14.303-21.612-21.454-32.408
					C1011.246,1516.488,993.611,1487.832,982.133,1457.132z"/>
				<path style="fill:#AB69A8;" d="M1155.759,1951.819c-0.019-0.958-0.049-1.917-0.088-2.874c-0.042-0.956-0.093-1.911-0.157-2.865
					c-0.042-0.636-0.09-1.272-0.142-1.907c-0.053-0.634-0.11-1.268-0.174-1.901c-1.039-10.447-3.511-20.69-7.786-30.518
					c-19.56-44.765-72.503-71.1-83.478-118.667c-3.114-13.459-2.483-27.553-2.214-41.51c0.273-14.818,0.141-29.498-5.236-43.094
					c-5.278-13.342-14.523-23.474-25.599-32.208c-21.445-16.912-49.754-28.583-69.442-48.151
					c-26.38-26.154-35.643-68.118-22.723-102.945c7.444-20.025,21.055-36.77,33.719-54.12c3.341-4.577,6.615-9.195,9.693-13.927
					c2.887-4.438,5.602-8.974,8.036-13.672c18.431-35.502,19.017-79.68,1.628-115.725c-14.677-30.45-41.92-57.412-41.285-91.202
					c0.044-2.166,0.176-4.292,0.494-6.37c-5.329-20.64-10.569-41.329-15.898-61.973c-40.521,21.681-49.644,74.307-58.634,119.381
					c-7.995,40.342-19.467,79.976-34.219,118.375c-3.164,57.739,3.861,115.177,34.629,165.357
					c14.509,23.663,31.172,45.882,47.553,68.296c11.754,16.082,23.364,32.266,33.927,49.158
					c25.505,40.777,40.398,84.802,59.375,128.764c17.896,41.457,32.582,84.272,42.639,128.34
					c9.678,42.366,20.944,91.772,15.254,135.218c-1.142,8.783-14.663,12.621-16.873,2.285c-5.562-25.987-5.562-52.86-8.906-79.235
					c-3.246-25.603-7.618-51.003-12.951-76.253c-11.112-52.573-25.404-107.498-51.982-154.5
					c-23.198-41.029-47.915-81.604-74.395-120.643c-2.008-2.959-4.01-5.916-6.007-8.874c-22.852-33.863-44.794-67.879-60.21-106.021
					c-17.364-42.969-21.578-88.958-19.359-135.178c-15.146-78.868,15.546-162.522,25.645-244.003
					c1.535-12.241,2.483-25.157-2.581-36.406c-5.055-11.204-18.064-19.784-29.719-15.721c-6.912,2.439-11.791,8.584-16.127,14.5
					c-6.233,8.54-12.417,20.102-19.105,32.206c-15.175,38.664-26.814,77.693-41.692,119.381c1.594,32.719,4.072,65.456,7.112,98.303
					c7.11,5.89,14.759,11.391,20.931,18.198c17.848,19.793,21.509,49.014,17.53,75.397c-3.873,25.984-14.127,50.557-21.213,75.892
					c2.733,31.8,4.805,63.654,5.642,95.657c0.238,9.097,0.725,18.986,1.078,29.278c2.078,3.785,4.39,7.464,6.95,11.022
					c26.97,37.447,75.617,53.932,104.348,90.064c2.214,2.806,4.292,5.647,6.233,8.589c25.881,39.221,26.981,90.648,27.787,138.479
					c0.013,0.76,0.026,1.518,0.039,2.275c0.018,1.22,0.04,2.442,0.064,3.667c0.016,0.817,0.032,1.635,0.051,2.454
					c0.027,1.228,0.056,2.459,0.089,3.692c0.01,0.412,0.022,0.823,0.034,1.234c0.023,0.823,0.049,1.646,0.074,2.471
					c0.027,0.824,0.054,1.65,0.084,2.475c0.014,0.413,0.03,0.827,0.045,1.239c0.046,1.24,0.097,2.482,0.151,3.723
					c0.157,3.559,0.346,7.125,0.58,10.693c0.093,1.427,0.193,2.854,0.301,4.281c0.054,0.713,0.109,1.427,0.167,2.14
					c3.167,39.221,12.157,77.942,38.502,105.61c0.48,0.503,0.964,1.002,1.455,1.498c0.286,0.289,0.573,0.576,0.862,0.861
					c0.508,0.503,1.019,1,1.535,1.491c1.032,0.984,2.083,1.948,3.15,2.894c0.483,0.428,0.971,0.854,1.46,1.275
					c15.177,13.068,33.232,22.914,47.112,37.39c0.313,0.326,0.624,0.656,0.933,0.987c17.629,18.933,27.145,45.118,26.002,70.932
					c-0.037,0.832-0.086,1.665-0.145,2.497c-0.063,0.902-0.141,1.804-0.232,2.704c-0.09,0.901-0.194,1.8-0.311,2.698
					c-1.353,1.436-2.314,3.019-2.925,4.683c-0.137,0.37-0.254,0.745-0.357,1.122c-0.408,1.508-0.549,3.069-0.456,4.634
					c0.531,8.805,8.512,17.756,18.326,18.423c8.973,0.608,17.182-3.939,23.315-10.694c0.149-0.164,0.298-0.331,0.444-0.498
					c0.735-0.836,1.439-1.705,2.11-2.599c2.279-3.043,4.166-6.391,5.57-9.835c0.826-2.025,1.528-4.085,2.136-6.17
					c0.091-0.313,0.18-0.627,0.267-0.941c0.26-0.943,0.502-1.89,0.727-2.842c0.201-0.847,0.388-1.697,0.564-2.55
					c0.177-0.854,0.341-1.709,0.496-2.568c0.291-1.61,0.549-3.229,0.783-4.854c1.017-7.045,1.607-14.205,2.662-21.223
					c4.186-28.432,15.869-54.808,28.012-81.046c0.809-1.749,1.621-3.497,2.433-5.246c4.615-9.946,9.23-19.889,13.459-29.935
					c4.527-10.751,8.613-21.982,11.782-33.415c4.062-14.662,6.618-29.661,6.663-44.422
					C1155.785,1953.739,1155.777,1952.778,1155.759,1951.819z"/>
				<path style="fill:#72367F;" d="M842.255,1405.946c2.378-43.418,10.518-87.007,18.656-127.81
					c9.471-47.443,19.207-94.833,26.159-142.73c6.732-46.331,7.65-92.892,9.74-139.554c1.191-26.701,5.161-53.398,4.606-80.17
					c-0.508-24.919-3.52-49.913-7.12-74.55c-3.576-24.494-8.284-48.669-14.764-72.3c-7.662,3.56-15.452,6.687-23.437,9.07
					c-0.001,0-0.002,0-0.002,0.001c14.452,66.254,22.97,133.015,26.156,201.862c2.246,48.568-7.609,98.274-14.411,146.175
					c-6.82,48.017-15.175,95.592-24.24,143.233c-8.18,42.983-16.483,88.346-18.648,133.489
					c-2.219,46.22,1.995,92.208,19.359,135.178c15.416,38.142,37.358,72.158,60.21,106.021c1.997,2.958,4,5.916,6.007,8.874
					c26.481,39.04,51.197,79.614,74.396,120.643c26.578,47.002,40.87,101.926,51.982,154.499c5.333,25.25,9.704,50.65,12.951,76.253
					c3.344,26.375,3.344,53.248,8.906,79.235c2.21,10.336,15.731,6.498,16.873-2.285c5.691-43.446-5.576-92.853-15.254-135.218
					c-10.058-44.068-24.743-86.884-42.639-128.341c-18.977-43.962-33.87-87.986-59.376-128.764
					c-10.562-16.891-22.173-33.075-33.927-49.158c-16.381-22.415-33.045-44.633-47.553-68.295
					C846.116,1521.122,839.091,1463.685,842.255,1405.946z"/>
				<g>
					<path style="fill:#BB77B0;" d="M1155.758,1951.819c-0.018-0.959-0.048-1.917-0.088-2.874c-0.042-0.956-0.093-1.911-0.156-2.866
						c-0.042-0.635-0.091-1.271-0.143-1.906c-0.052-0.634-0.11-1.268-0.173-1.901c-1.039-10.447-3.511-20.689-7.786-30.518
						c-19.56-44.766-72.503-71.1-83.478-118.667c-3.115-13.458-2.484-27.553-2.214-41.51c-8.673-16.939-17.839-33.609-28.863-49.15
						c-25.162-35.37-64.325-65.269-107.644-62.878c-0.258,0.015-0.517,0.032-0.776,0.049c11.754,16.083,23.364,32.266,33.927,49.158
						c25.506,40.778,40.399,84.802,59.376,128.764c17.896,41.457,32.581,84.273,42.639,128.341
						c9.679,42.365,20.945,91.772,15.254,135.218c-1.142,8.782-14.663,12.621-16.873,2.285c-5.562-25.986-5.562-52.859-8.906-79.235
						c-3.247-25.603-7.618-51.003-12.951-76.253c-11.112-52.573-25.405-107.497-51.982-154.499
						c-23.198-41.029-47.915-81.604-74.396-120.643c-2.007-2.958-4.009-5.916-6.007-8.874c-13.306,4.96-24.773,14.066-29.623,27.177
						c-4.517,12.241-2.713,25.793-0.635,38.665c3.569,21.774,9.802,43.592,15.722,65.317
						c25.881,39.219,26.981,90.648,27.787,138.479c0.013,0.76,0.026,1.517,0.039,2.275c0.019,1.219,0.04,2.441,0.064,3.666
						c0.016,0.817,0.032,1.635,0.051,2.454c0.026,1.229,0.056,2.459,0.089,3.693c0.01,0.411,0.022,0.823,0.033,1.234
						c0.023,0.823,0.049,1.647,0.074,2.471c0.026,0.824,0.054,1.65,0.084,2.475c0.014,0.413,0.03,0.826,0.045,1.239
						c0.046,1.24,0.097,2.481,0.151,3.723c0.157,3.559,0.346,7.125,0.58,10.693c0.093,1.427,0.193,2.854,0.301,4.281
						c0.054,0.713,0.109,1.426,0.166,2.139c3.167,39.221,12.158,77.942,38.503,105.61c0.48,0.503,0.964,1.002,1.455,1.498
						c0.286,0.289,0.573,0.576,0.862,0.861c0.507,0.502,1.019,0.999,1.535,1.491c1.032,0.983,2.083,1.947,3.15,2.893
						c0.483,0.428,0.97,0.854,1.46,1.275c15.177,13.068,33.232,22.914,47.112,37.39c0.313,0.326,0.624,0.656,0.933,0.987
						c17.629,18.933,27.144,45.118,26.002,70.932c-0.037,0.833-0.086,1.666-0.145,2.497c-0.064,0.903-0.141,1.804-0.232,2.704
						c-0.09,0.9-0.194,1.8-0.311,2.698c-1.353,1.435-2.314,3.019-2.924,4.684c-0.137,0.369-0.255,0.743-0.358,1.121
						c-0.408,1.508-0.549,3.07-0.455,4.634c0.531,8.805,8.511,17.757,18.325,18.424c8.973,0.607,17.182-3.939,23.314-10.694
						c0.149-0.165,0.298-0.331,0.445-0.499c0.736-0.836,1.439-1.705,2.11-2.599c2.278-3.043,4.167-6.391,5.571-9.835
						c0.826-2.025,1.528-4.085,2.136-6.17c0.092-0.313,0.18-0.627,0.267-0.941c0.26-0.942,0.502-1.89,0.727-2.842
						c0.201-0.846,0.388-1.697,0.564-2.549c0.176-0.853,0.341-1.709,0.496-2.569c0.291-1.61,0.549-3.229,0.783-4.855
						c1.016-7.044,1.606-14.204,2.662-21.222c4.186-28.432,15.87-54.809,28.013-81.047c0.809-1.749,1.621-3.497,2.432-5.246
						c4.615-9.945,9.231-19.889,13.46-29.934c4.527-10.752,8.613-21.981,11.781-33.416c4.063-14.661,6.618-29.659,6.663-44.422
						C1155.785,1953.739,1155.777,1952.778,1155.758,1951.819z"/>
				</g>
			</g>
		</g>
	</g>
</g>
</svg>
