<?xml version="1.0" encoding="utf-8"?>
<!-- Generator: Adobe Illustrator 27.5.0, SVG Export Plug-In . SVG Version: 6.00 Build 0)  -->
<svg version="1.1" id="Layer_1" xmlns="http://www.w3.org/2000/svg" xmlns:xlink="http://www.w3.org/1999/xlink" x="0px" y="0px"
	 viewBox="0 0 259.142 287.933" style="enable-background:new 0 0 259.142 287.933;" xml:space="preserve">
<g>
	<g>
		<g>
			<g>
				<g>
					<path style="fill:#00AEEF;" d="M44.209,160.924c-0.383-1.412-1.696-2.441-2.532-3.586c-1.185-1.625-1.959-3.506-2.138-5.51
						c-0.291-3.253-0.342-6.831-3.952-8.085c-5.366-1.865-11.107,3.016-14.823,6.275c-1.305,1.145-2.78,2.125-4.347,2.874
						c-0.906,0.433-1.85,0.781-2.837,0.978c-1.592,0.317-3.495,0.15-4.951,0.915c-0.87,0.457-1.581,1.271-1.768,2.236
						c-0.632,3.273,2.704,3.363,5.009,2.415c2.004-0.825,3.438-2.45,5.291-3.506c0.74-0.422,1.736-0.843,2.55-0.356
						c-1.084,1.081-2.335,1.968-3.642,2.759c-1.37,0.829-2.739,1.598-3.956,2.654c-1.128,0.979-2.273,2.258-2.478,3.796
						c-0.155,1.165,0.339,2.561,1.513,3c1.046,0.391,2.253,0.005,3.22-0.435c1.155-0.526,2.223-1.243,3.221-2.023
						c0.679-0.531,1.351-1.081,1.901-1.748c0.737-0.895,1.409-1.842,2.112-2.762c0.896-1.171,1.822-2.344,2.905-3.349
						c0.463-0.43,1.079-0.977,1.739-1.134c0.406,1.132-0.921,2.595-1.568,3.327c-1.15,1.301-2.3,2.603-3.3,4.026
						c-1.12,1.593-2.044,3.415-2.199,5.385c-0.107,1.349,0.155,2.974,1.355,3.79c0.632,0.43,1.497,0.552,2.236,0.391
						c0.778-0.169,1.41-0.654,1.947-1.222c1.415-1.494,2.468-3.186,3.319-5.053c0.767-1.683,1.402-3.45,2.382-5.026
						c0.616-0.992,1.615-2.443,2.926-2.468c2.098-0.039,2.294,3.375,3.308,4.646c1.5,1.881,4.48,1.661,6.228,0.261
						c0.852-0.683,1.489-1.72,1.433-2.811C44.302,161.348,44.266,161.132,44.209,160.924z"/>
					<path style="fill:#09556D;" d="M22.131,173.621c-0.642,0-1.279-0.179-1.768-0.512c-1.55-1.054-1.557-3.196-1.488-4.067
						c0.14-1.767,0.877-3.578,2.254-5.536c1.013-1.441,2.186-2.769,3.321-4.053l0.045-0.051c0.524-0.593,1.559-1.762,1.521-2.672
						c-0.462,0.203-0.908,0.594-1.3,0.957c-1.071,0.994-2.005,2.18-2.87,3.311c-0.236,0.309-0.469,0.62-0.701,0.931
						c-0.454,0.609-0.925,1.24-1.419,1.839c-0.581,0.706-1.281,1.274-1.948,1.796c-1.166,0.911-2.239,1.585-3.282,2.06
						c-1.409,0.641-2.54,0.784-3.454,0.443c-1.346-0.503-1.878-2.054-1.71-3.326c0.178-1.331,1.022-2.635,2.581-3.988
						c1.073-0.93,2.278-1.652,3.443-2.351l0.555-0.334c1.323-0.8,2.365-1.566,3.245-2.386c-0.479-0.091-1.077,0.076-1.843,0.511
						c-0.757,0.432-1.462,0.975-2.143,1.501c-0.973,0.75-1.979,1.527-3.183,2.022c-1.528,0.63-3.577,0.849-4.709-0.077
						c-0.486-0.398-1.005-1.185-0.717-2.678c0.193-1.002,0.913-1.917,1.926-2.449c1.007-0.529,2.192-0.634,3.337-0.735
						c0.598-0.053,1.163-0.103,1.696-0.209c0.887-0.176,1.791-0.489,2.765-0.954c1.535-0.734,2.974-1.685,4.278-2.828
						c3.541-3.105,9.467-8.303,15.126-6.334c3.558,1.237,3.847,4.67,4.101,7.699l0.056,0.648c0.167,1.867,0.886,3.719,2.081,5.356
						c0.253,0.348,0.551,0.683,0.866,1.038c0.704,0.792,1.431,1.611,1.714,2.649l0,0c0.064,0.237,0.102,0.478,0.114,0.716
						c0.057,1.098-0.522,2.244-1.547,3.065c-1.064,0.853-2.567,1.286-3.928,1.137c-1.131-0.126-2.075-0.626-2.729-1.446
						c-0.372-0.466-0.627-1.154-0.897-1.882c-0.484-1.303-0.983-2.65-2.138-2.65c-0.009,0-0.019,0.001-0.028,0.001
						c-1.101,0.021-2.006,1.252-2.672,2.323c-0.692,1.113-1.221,2.352-1.734,3.55c-0.207,0.483-0.413,0.965-0.629,1.441
						c-0.928,2.037-2.032,3.718-3.375,5.137c-0.684,0.723-1.373,1.152-2.104,1.311C22.605,173.596,22.368,173.621,22.131,173.621z
						 M26.443,155.968l0.093,0.258c0.458,1.277-0.869,2.776-1.583,3.582l-0.044,0.05c-1.124,1.272-2.286,2.587-3.279,3.999
						c-1.312,1.867-2.014,3.578-2.145,5.232c-0.06,0.765-0.062,2.64,1.223,3.514c0.536,0.364,1.303,0.496,1.999,0.345
						c0.615-0.133,1.184-0.494,1.789-1.134c1.296-1.369,2.363-2.995,3.263-4.969c0.215-0.472,0.419-0.95,0.624-1.428
						c0.521-1.219,1.061-2.48,1.777-3.632c0.747-1.202,1.784-2.586,3.18-2.613c1.591-0.018,2.217,1.604,2.752,3.048
						c0.253,0.681,0.491,1.324,0.802,1.714c0.696,0.872,1.645,1.144,2.319,1.219c1.204,0.137,2.536-0.251,3.478-1.006
						c0.872-0.698,1.365-1.654,1.319-2.556c-0.01-0.195-0.041-0.392-0.094-0.586c-0.244-0.899-0.924-1.663-1.581-2.403
						c-0.311-0.35-0.632-0.712-0.903-1.083c-1.26-1.728-2.019-3.686-2.195-5.662l-0.056-0.652c-0.251-2.982-0.509-6.066-3.692-7.171
						c-5.32-1.852-11.08,3.199-14.521,6.215c-1.346,1.18-2.832,2.162-4.418,2.92c-1.021,0.488-1.972,0.816-2.909,1.002
						c-0.566,0.113-1.174,0.167-1.762,0.219c-1.085,0.096-2.208,0.195-3.106,0.667c-0.85,0.446-1.451,1.202-1.609,2.023
						c-0.186,0.961-0.017,1.664,0.503,2.088c0.933,0.763,2.773,0.527,4.089-0.015c1.128-0.465,2.058-1.182,3.043-1.941
						c0.698-0.539,1.42-1.095,2.214-1.548c0.438-0.248,1.768-1.006,2.859-0.352l0.337,0.202l-0.279,0.278
						c-0.984,0.981-2.159,1.872-3.7,2.803l-0.557,0.335c-1.196,0.716-2.325,1.393-3.357,2.288c-1.441,1.251-2.218,2.43-2.375,3.606
						c-0.134,1.007,0.282,2.286,1.316,2.672c0.756,0.283,1.734,0.144,2.986-0.426c0.998-0.455,2.031-1.104,3.159-1.985
						c0.641-0.5,1.312-1.044,1.853-1.701c0.484-0.588,0.95-1.213,1.401-1.817c0.234-0.313,0.468-0.627,0.705-0.937
						c0.881-1.151,1.834-2.362,2.94-3.388c0.534-0.495,1.163-1.037,1.876-1.207L26.443,155.968z"/>
				</g>
				<path style="fill:#00AEEF;" d="M7.081,157.142c0.673-0.9,1.69-1.468,2.718-1.874c2.109-0.834,4.393-1.072,6.573-1.652
					c0.945-0.252,1.854-0.569,2.66-1.133c1.536-1.074,2.665-2.614,3.928-3.974c2.245-2.419,5.119-4.012,8.246-4.964
					c-3.937,0.853-7.729,4.093-10.442,6.471c-1.305,1.145-2.78,2.125-4.347,2.874c-0.906,0.433-1.85,0.782-2.837,0.978
					c-1.592,0.317-3.495,0.15-4.951,0.915c-0.87,0.457-1.581,1.271-1.768,2.236c-0.04,0.208-0.064,0.403-0.073,0.586
					C6.876,157.447,6.97,157.291,7.081,157.142z"/>
				<path style="fill:#00AEEF;" d="M10.459,164.814c0.843-1.648,2.354-2.922,3.78-4.053c1.154-0.916,2.344-1.797,3.534-2.666
					c0.684-0.499,1.372-0.999,2.014-1.551c0.285-0.245,0.569-0.499,0.81-0.788c0.084-0.101,0.134-0.214,0.209-0.318c0,0,0,0,0,0
					c-0.321-0.23-0.814-0.121-1.267,0.055c0.058,0.025,0.117,0.045,0.174,0.079c-1.084,1.081-2.335,1.968-3.642,2.758
					c-1.37,0.829-2.739,1.598-3.956,2.654c-1.128,0.979-2.273,2.258-2.478,3.796c-0.085,0.637,0.032,1.339,0.34,1.919
					C9.968,166.047,10.158,165.403,10.459,164.814z"/>
				<path style="fill:#00AEEF;" d="M20.468,168.973c0.449-1.591,1.237-3.138,2.12-4.532c0.825-1.302,1.789-2.511,2.563-3.846
					c0.587-1.014,1.106-2.166,1.107-3.35c-0.241,0.917-1.097,1.866-1.578,2.41c-1.15,1.301-2.3,2.602-3.3,4.026
					c-1.12,1.593-2.044,3.415-2.199,5.385c-0.104,1.319,0.149,2.895,1.281,3.728C20.043,171.564,20.118,170.216,20.468,168.973z"/>
				<path style="fill:#00AEEF;" d="M37.791,164.57c-0.793-0.751-1.212-1.712-1.58-2.718c-0.331-0.902-0.81-1.838-1.554-2.468
					c-0.746-0.632-1.563-0.546-2.289-0.073c0.205,0.07,0.411,0.141,0.604,0.224c0.123-0.028,0.246-0.055,0.375-0.057
					c2.098-0.039,2.294,3.375,3.308,4.647c0.658,0.824,1.599,1.245,2.596,1.34C38.713,165.262,38.211,164.968,37.791,164.57z"/>
				<path style="fill:#00AEEF;" d="M33.221,159.011c-0.89-1.146-2.381-1.579-3.63-0.73c-0.91,0.618-1.491,1.647-1.919,2.633
					c-0.624,1.439-1.014,2.957-1.487,4.449c-0.738,2.326-1.894,5.463-4.609,6.035c-0.819,0.173-1.749,0.044-2.303-0.639
					c0.169,0.834,0.546,1.611,1.263,2.099c0.632,0.43,1.497,0.552,2.236,0.391c0.778-0.169,1.41-0.654,1.947-1.222
					c1.415-1.494,2.468-3.186,3.319-5.053c0.767-1.683,1.402-3.45,2.382-5.026c0.616-0.992,1.615-2.443,2.926-2.468
					c0.067-0.001,0.127,0.011,0.19,0.016C33.443,159.328,33.341,159.165,33.221,159.011z"/>
				<path style="fill:#00AEEF;" d="M24.508,157.462c0.446-0.414,1.034-0.928,1.667-1.107c0.147-0.315,0.222-0.643,0.091-0.911
					c-0.3-0.614-1.528-0.499-2.046-0.369c-1,0.25-1.885,0.901-2.656,1.559c-1.578,1.349-2.964,2.963-4.343,4.511
					c-1.295,1.455-2.653,3.398-4.722,3.725c-0.947,0.15-2.01-0.134-2.674-0.85c-0.084,0.246-0.155,0.497-0.189,0.758
					c-0.155,1.165,0.339,2.561,1.513,3c1.046,0.392,2.253,0.005,3.22-0.435c1.155-0.526,2.223-1.243,3.221-2.023
					c0.679-0.531,1.351-1.081,1.901-1.748c0.737-0.895,1.409-1.842,2.113-2.763C22.5,159.641,23.425,158.468,24.508,157.462z"/>
				<path style="fill:#00AEEF;" d="M17.163,155.928c0.67-0.382,1.546-0.755,2.31-0.465c0.088-0.1,0.168-0.205,0.232-0.319
					c0.283-0.504-0.12-0.987-0.63-1.098c-0.785-0.171-1.67,0.126-2.404,0.381c-0.67,0.232-1.319,0.52-1.972,0.796
					c-1.646,0.695-3.528,1.891-5.395,1.435c-0.679-0.166-1.241-0.651-1.497-1.283c-0.471,0.445-0.822,1.011-0.944,1.644
					c-0.632,3.273,2.704,3.363,5.009,2.414C13.875,158.609,15.309,156.984,17.163,155.928z"/>
				<path style="fill:#00AEEF;" d="M44.314,161.575c-0.012-0.226-0.048-0.443-0.105-0.651c-0.383-1.412-1.696-2.441-2.532-3.586
					c-1.185-1.625-1.959-3.506-2.138-5.51c-0.291-3.253-0.342-6.831-3.952-8.085c-2.785-0.968-5.671-0.117-8.323,1.38
					c0.31-0.023,0.621-0.044,0.929-0.041c1.327,0.011,2.67,0.274,3.849,0.9c1.172,0.623,2.26,1.443,2.892,2.636
					c1.177,2.22,0.653,4.908,1.73,7.151c0.604,1.258,1.626,2.259,2.51,3.318c0.891,1.068,1.608,2.179,1.953,3.54
					c0.226,0.895,0.118,1.944-0.37,2.742c0.779-0.165,1.524-0.502,2.123-0.982C43.733,163.703,44.37,162.666,44.314,161.575z"/>
			</g>
			<g>
				<g>
					<path style="fill:#00AEEF;" d="M60.924,109.823c0.354-1.321,0.609-2.656,0.758-3.944c0.278-2.403-0.151-5.24-2.125-6.849
						c-2.863-2.333-6.787-2.829-10.165-1.36c-2.236,0.972-4.05,2.688-5.46,4.65c-1.388,1.931-2.446,4.118-3.205,6.368
						c-0.685,2.03-1.157,4.219-0.969,6.371c0.183,2.092,1.089,4.021,2.825,5.26c5.442,3.883,13.031,0.554,16.054-4.78
						C59.613,113.817,60.383,111.837,60.924,109.823z"/>
					<path style="fill:#09556D;" d="M47.9,122.316c-2.002,0-3.87-0.59-5.495-1.749c-1.701-1.214-2.749-3.16-2.952-5.482
						c-0.167-1.913,0.154-4.037,0.983-6.496c0.815-2.415,1.907-4.584,3.246-6.449c1.611-2.242,3.49-3.841,5.586-4.752
						c3.523-1.531,7.539-0.994,10.48,1.403c2.523,2.055,2.405,5.665,2.237,7.122c-0.153,1.32-0.411,2.662-0.766,3.988l0,0
						c-0.566,2.112-1.367,4.113-2.317,5.787c-1.78,3.141-5.079,5.576-8.61,6.358C49.479,122.227,48.679,122.316,47.9,122.316z
						 M53.382,97.14c-1.303,0-2.619,0.267-3.869,0.811c-1.993,0.866-3.787,2.396-5.333,4.548c-1.304,1.814-2.369,3.93-3.164,6.287
						c-0.802,2.377-1.113,4.419-0.954,6.246c0.187,2.141,1.146,3.93,2.697,5.037c2.669,1.904,5.497,1.802,7.4,1.38
						c3.367-0.745,6.513-3.068,8.211-6.062c0.924-1.63,1.704-3.582,2.257-5.644h0.001c0.348-1.297,0.6-2.609,0.749-3.9
						c0.157-1.356,0.274-4.712-2.014-6.576C57.643,97.865,55.53,97.14,53.382,97.14z"/>
				</g>
				<path style="fill:#9DD9E8;" d="M40.392,116.966c-0.22-1.783-0.093-3.57,0.257-5.328c0.516-2.594,1.463-5.15,2.758-7.456
					c1.001-1.782,2.219-3.481,3.718-4.88c0.587-0.548,1.229-1.045,1.915-1.461c-2.073,0.994-3.775,2.622-5.109,4.479
					c-1.388,1.931-2.446,4.118-3.205,6.368c-0.685,2.03-1.157,4.219-0.969,6.371c0.089,1.017,0.35,1.995,0.793,2.874
					C40.48,117.598,40.429,117.269,40.392,116.966z"/>
				<path style="fill:#00AEEF;" d="M60.924,109.823c0.354-1.321,0.609-2.656,0.758-3.944c0.278-2.403-0.151-5.24-2.125-6.849
					c-2.435-1.984-5.636-2.634-8.617-1.882c0.107,1.12,0.805,2.049,1.551,2.888c0.89,1.001,1.891,1.988,2.305,3.298
					c0.526,1.664,0.19,3.56-0.21,5.213c-0.36,1.489-0.828,2.99-1.456,4.39c-0.597,1.329-1.355,2.59-2.288,3.71
					c-0.919,1.104-2.05,2.105-3.401,2.638c-1.358,0.535-2.828,0.502-4.158-0.1c-1.363-0.616-2.421-1.717-3.079-3.051
					c-0.175-0.355-0.322-0.723-0.447-1.098c0.001,0.008,0,0.016,0.001,0.023c0.183,2.092,1.089,4.021,2.825,5.26
					c5.442,3.883,13.031,0.554,16.054-4.78C59.613,113.817,60.383,111.837,60.924,109.823z"/>
			</g>
			<g>
				<g>
					<path style="fill:#00AEEF;" d="M48.952,133.667c0.354-1.321,0.609-2.656,0.758-3.944c0.277-2.403-0.151-5.24-2.126-6.849
						c-2.863-2.333-6.787-2.829-10.165-1.359c-2.236,0.972-4.05,2.688-5.46,4.65c-1.387,1.931-2.446,4.118-3.205,6.368
						c-0.685,2.03-1.157,4.219-0.969,6.371c0.183,2.092,1.089,4.021,2.825,5.26c5.442,3.883,13.031,0.554,16.054-4.78
						C47.64,137.661,48.411,135.682,48.952,133.667z"/>
					<path style="fill:#09556D;" d="M35.928,146.16c-2.003,0-3.871-0.59-5.496-1.749c-1.701-1.214-2.75-3.161-2.952-5.482
						c-0.167-1.913,0.154-4.037,0.984-6.496c0.814-2.415,1.906-4.584,3.246-6.449c1.611-2.242,3.49-3.841,5.586-4.752
						c3.523-1.53,7.538-0.994,10.48,1.403c2.523,2.055,2.405,5.665,2.237,7.122c-0.153,1.32-0.411,2.662-0.767,3.988l0,0
						c-0.566,2.111-1.367,4.113-2.317,5.788c-1.78,3.141-5.079,5.577-8.61,6.358C37.507,146.071,36.707,146.16,35.928,146.16z
						 M41.41,120.985c-1.303,0-2.619,0.266-3.869,0.81c-1.993,0.866-3.787,2.396-5.333,4.548c-1.304,1.815-2.368,3.93-3.163,6.287
						c-0.802,2.376-1.114,4.419-0.954,6.246c0.187,2.14,1.146,3.929,2.698,5.037c2.668,1.904,5.497,1.801,7.4,1.38
						c3.367-0.744,6.513-3.067,8.21-6.062c0.924-1.631,1.705-3.582,2.257-5.644l0.001-0.001c0.348-1.297,0.6-2.609,0.749-3.9
						c0.157-1.356,0.274-4.712-2.014-6.576C45.67,121.709,43.558,120.985,41.41,120.985z"/>
				</g>
				<path style="fill:#9DD9E8;" d="M28.42,140.81c-0.22-1.783-0.093-3.57,0.257-5.328c0.516-2.594,1.463-5.15,2.758-7.456
					c1.001-1.782,2.22-3.481,3.718-4.881c0.587-0.548,1.229-1.045,1.915-1.461c-2.073,0.994-3.775,2.622-5.109,4.479
					c-1.387,1.931-2.446,4.118-3.205,6.368c-0.685,2.03-1.157,4.219-0.969,6.371c0.089,1.017,0.35,1.995,0.794,2.874
					C28.508,141.442,28.457,141.113,28.42,140.81z"/>
				<path style="fill:#00AEEF;" d="M48.952,133.667c0.354-1.321,0.609-2.656,0.758-3.944c0.277-2.403-0.151-5.24-2.126-6.849
					c-2.435-1.984-5.636-2.634-8.617-1.882c0.107,1.12,0.806,2.049,1.551,2.888c0.89,1.001,1.891,1.988,2.306,3.298
					c0.526,1.664,0.19,3.56-0.21,5.213c-0.36,1.489-0.828,2.99-1.457,4.389c-0.597,1.329-1.355,2.59-2.288,3.711
					c-0.919,1.104-2.049,2.105-3.401,2.638c-1.358,0.535-2.828,0.502-4.158-0.1c-1.363-0.616-2.421-1.717-3.079-3.051
					c-0.175-0.355-0.322-0.723-0.447-1.098c0.001,0.008,0,0.016,0.001,0.024c0.183,2.092,1.089,4.021,2.825,5.26
					c5.442,3.883,13.031,0.554,16.054-4.78C47.64,137.661,48.411,135.682,48.952,133.667z"/>
			</g>
		</g>
		<g>
			<g>
				<g>
					<path style="fill:#00AEEF;" d="M214.828,161.575c-0.056,1.091,0.581,2.128,1.433,2.811c1.748,1.4,4.727,1.62,6.227-0.261
						c1.014-1.272,1.211-4.686,3.309-4.646c1.311,0.025,2.31,1.476,2.926,2.468c0.98,1.576,1.615,3.343,2.382,5.026
						c0.851,1.867,1.904,3.559,3.319,5.053c0.537,0.567,1.169,1.053,1.947,1.222c0.74,0.161,1.604,0.039,2.236-0.391
						c1.201-0.817,1.462-2.441,1.355-3.79c-0.156-1.97-1.079-3.792-2.199-5.385c-1.001-1.423-2.15-2.725-3.3-4.026
						c-0.647-0.732-1.974-2.195-1.568-3.327c0.66,0.157,1.276,0.704,1.739,1.134c1.084,1.005,2.009,2.178,2.905,3.349
						c0.704,0.92,1.376,1.868,2.113,2.762c0.55,0.668,1.221,1.217,1.901,1.748c0.998,0.78,2.065,1.497,3.221,2.023
						c0.967,0.44,2.174,0.826,3.22,0.435c1.173-0.439,1.668-1.835,1.513-3c-0.205-1.538-1.35-2.818-2.478-3.796
						c-1.217-1.056-2.586-1.825-3.956-2.654c-1.307-0.791-2.558-1.678-3.642-2.759c0.814-0.487,1.809-0.066,2.55,0.356
						c1.854,1.057,3.287,2.681,5.291,3.506c2.305,0.949,5.641,0.859,5.009-2.415c-0.186-0.965-0.897-1.779-1.767-2.236
						c-1.456-0.764-3.359-0.598-4.951-0.915c-0.986-0.197-1.931-0.545-2.837-0.978c-1.567-0.749-3.042-1.73-4.347-2.874
						c-3.717-3.258-9.458-8.14-14.823-6.275c-3.61,1.255-3.661,4.832-3.952,8.085c-0.179,2.003-0.953,3.885-2.138,5.51
						c-0.836,1.146-2.148,2.175-2.532,3.586C214.876,161.132,214.84,161.348,214.828,161.575z"/>
					<path style="fill:#09556D;" d="M237.012,173.621c-0.237,0-0.475-0.024-0.706-0.075c-0.731-0.158-1.419-0.587-2.103-1.311
						c-1.343-1.419-2.447-3.099-3.376-5.137c-0.216-0.476-0.423-0.958-0.63-1.441c-0.512-1.198-1.042-2.437-1.734-3.55
						c-0.665-1.071-1.571-2.302-2.672-2.323c-0.01,0-0.019-0.001-0.028-0.001c-1.155,0-1.654,1.347-2.138,2.65
						c-0.27,0.728-0.525,1.416-0.897,1.882c-0.654,0.82-1.598,1.32-2.729,1.446c-1.358,0.15-2.864-0.284-3.928-1.137
						c-1.025-0.821-1.604-1.967-1.547-3.065l0,0c0.012-0.238,0.05-0.479,0.114-0.716c0.282-1.038,1.01-1.857,1.714-2.649
						c0.315-0.355,0.613-0.69,0.866-1.038c1.195-1.637,1.914-3.49,2.081-5.356l0.056-0.648c0.254-3.029,0.542-6.462,4.101-7.699
						c5.661-1.965,11.585,3.23,15.126,6.334c1.303,1.143,2.742,2.094,4.277,2.828c0.975,0.466,1.879,0.777,2.765,0.954
						c0.533,0.106,1.098,0.156,1.696,0.209c1.145,0.101,2.33,0.206,3.337,0.735c1.013,0.531,1.733,1.447,1.926,2.449
						c0.288,1.493-0.231,2.281-0.717,2.678c-1.133,0.926-3.181,0.706-4.709,0.077c-1.203-0.495-2.21-1.272-3.183-2.022
						c-0.682-0.526-1.387-1.07-2.144-1.501c-0.764-0.436-1.361-0.603-1.842-0.511c0.879,0.82,1.922,1.586,3.245,2.386l0.555,0.334
						c1.165,0.699,2.37,1.421,3.443,2.351c1.56,1.353,2.404,2.657,2.581,3.987c0.169,1.273-0.364,2.824-1.71,3.327
						c-0.915,0.343-2.044,0.198-3.454-0.443c-1.043-0.475-2.116-1.149-3.282-2.061c-0.668-0.521-1.368-1.089-1.948-1.795
						c-0.494-0.599-0.964-1.23-1.419-1.839c-0.232-0.312-0.465-0.623-0.701-0.931c-0.865-1.131-1.799-2.317-2.87-3.311
						c-0.392-0.363-0.838-0.754-1.3-0.957c-0.038,0.91,0.997,2.079,1.521,2.672l0.045,0.051c1.135,1.284,2.308,2.612,3.321,4.053
						c1.377,1.958,2.114,3.769,2.254,5.536c0.069,0.872,0.062,3.013-1.488,4.067C238.29,173.442,237.653,173.621,237.012,173.621z
						 M225.759,159.171c0.015,0,0.029,0.001,0.044,0.001c1.396,0.027,2.433,1.41,3.18,2.613c0.716,1.153,1.256,2.413,1.777,3.632
						c0.204,0.478,0.409,0.957,0.624,1.428c0.9,1.975,1.967,3.6,3.263,4.969c0.605,0.64,1.173,1,1.788,1.134
						c0.701,0.151,1.465,0.019,2-0.345c1.284-0.874,1.283-2.748,1.223-3.514c-0.132-1.654-0.833-3.366-2.145-5.232
						c-0.993-1.412-2.155-2.728-3.279-3.999l-0.044-0.05c-0.713-0.806-2.04-2.305-1.583-3.582l0.093-0.258l0.267,0.063
						c0.713,0.17,1.342,0.712,1.876,1.206c1.107,1.027,2.059,2.237,2.94,3.389c0.237,0.31,0.471,0.624,0.705,0.937
						c0.451,0.604,0.917,1.229,1.401,1.817c0.541,0.658,1.212,1.201,1.853,1.701c1.128,0.882,2.161,1.531,3.159,1.986
						c1.254,0.57,2.229,0.712,2.986,0.426c1.034-0.386,1.451-1.665,1.317-2.672c-0.157-1.175-0.933-2.354-2.375-3.605
						c-1.031-0.895-2.161-1.572-3.356-2.288l-0.557-0.335c-1.54-0.932-2.715-1.822-3.699-2.803l-0.279-0.278l0.337-0.202
						c1.091-0.654,2.422,0.103,2.858,0.352c0.795,0.453,1.517,1.01,2.214,1.548c0.985,0.759,1.915,1.477,3.043,1.941
						c1.316,0.542,3.157,0.778,4.089,0.015c0.52-0.424,0.689-1.127,0.503-2.088c-0.158-0.821-0.759-1.577-1.609-2.023
						c-0.899-0.472-2.021-0.571-3.106-0.667c-0.588-0.052-1.196-0.106-1.762-0.219c-0.936-0.186-1.887-0.514-2.909-1.002
						c-1.586-0.758-3.072-1.741-4.417-2.92c-3.439-3.016-9.199-8.067-14.521-6.215c-3.183,1.105-3.441,4.189-3.692,7.171
						l-0.056,0.652c-0.176,1.977-0.936,3.934-2.195,5.662c-0.271,0.372-0.592,0.733-0.903,1.083
						c-0.657,0.74-1.336,1.504-1.581,2.403c-0.052,0.194-0.084,0.392-0.094,0.586l0,0c-0.046,0.902,0.447,1.858,1.319,2.556
						c0.941,0.755,2.278,1.143,3.478,1.006c0.674-0.075,1.623-0.347,2.319-1.219c0.31-0.39,0.549-1.033,0.802-1.714
						C223.582,160.79,224.183,159.171,225.759,159.171z"/>
				</g>
				<path style="fill:#00AEEF;" d="M252.061,157.142c-0.673-0.9-1.69-1.468-2.718-1.874c-2.109-0.834-4.393-1.072-6.573-1.652
					c-0.945-0.252-1.854-0.569-2.66-1.133c-1.536-1.074-2.665-2.614-3.928-3.974c-2.245-2.419-5.119-4.012-8.246-4.964
					c3.937,0.853,7.729,4.093,10.442,6.471c1.305,1.145,2.78,2.125,4.347,2.874c0.906,0.433,1.85,0.782,2.837,0.978
					c1.592,0.317,3.495,0.15,4.951,0.915c0.87,0.457,1.581,1.271,1.767,2.236c0.04,0.208,0.064,0.403,0.073,0.586
					C252.267,157.447,252.173,157.291,252.061,157.142z"/>
				<path style="fill:#00AEEF;" d="M248.684,164.814c-0.843-1.648-2.354-2.922-3.78-4.053c-1.154-0.916-2.344-1.797-3.534-2.666
					c-0.684-0.499-1.372-0.999-2.014-1.551c-0.285-0.245-0.569-0.499-0.81-0.788c-0.084-0.101-0.134-0.214-0.209-0.318c0,0,0,0,0,0
					c0.321-0.23,0.814-0.121,1.267,0.055c-0.058,0.025-0.117,0.045-0.174,0.079c1.084,1.081,2.335,1.968,3.642,2.758
					c1.37,0.829,2.74,1.598,3.956,2.654c1.128,0.979,2.273,2.258,2.478,3.796c0.085,0.637-0.032,1.339-0.34,1.919
					C249.175,166.047,248.984,165.403,248.684,164.814z"/>
				<path style="fill:#00AEEF;" d="M238.674,168.973c-0.449-1.591-1.237-3.138-2.12-4.532c-0.825-1.302-1.789-2.511-2.563-3.846
					c-0.587-1.014-1.106-2.166-1.107-3.35c0.24,0.917,1.097,1.866,1.578,2.41c1.15,1.301,2.3,2.602,3.3,4.026
					c1.12,1.593,2.044,3.415,2.199,5.385c0.104,1.319-0.149,2.895-1.281,3.728C239.099,171.564,239.025,170.216,238.674,168.973z"/>
				<path style="fill:#00AEEF;" d="M221.352,164.57c0.793-0.751,1.212-1.712,1.58-2.718c0.331-0.902,0.81-1.838,1.554-2.468
					c0.746-0.632,1.563-0.546,2.289-0.073c-0.205,0.07-0.411,0.141-0.604,0.224c-0.123-0.028-0.246-0.055-0.375-0.057
					c-2.098-0.039-2.294,3.375-3.309,4.647c-0.658,0.824-1.599,1.245-2.596,1.34C220.43,165.262,220.931,164.968,221.352,164.57z"/>
				<path style="fill:#00AEEF;" d="M225.921,159.011c0.89-1.146,2.381-1.579,3.63-0.73c0.91,0.618,1.491,1.647,1.919,2.633
					c0.624,1.439,1.014,2.957,1.487,4.449c0.738,2.326,1.894,5.463,4.609,6.035c0.819,0.173,1.749,0.044,2.303-0.639
					c-0.169,0.834-0.546,1.611-1.263,2.099c-0.632,0.43-1.497,0.552-2.236,0.391c-0.778-0.169-1.409-0.654-1.947-1.222
					c-1.414-1.494-2.468-3.186-3.319-5.053c-0.767-1.683-1.402-3.45-2.382-5.026c-0.617-0.992-1.615-2.443-2.926-2.468
					c-0.067-0.001-0.127,0.011-0.19,0.016C225.7,159.328,225.802,159.165,225.921,159.011z"/>
				<path style="fill:#00AEEF;" d="M234.634,157.462c-0.446-0.414-1.034-0.928-1.667-1.107c-0.147-0.315-0.222-0.643-0.091-0.911
					c0.3-0.614,1.528-0.499,2.046-0.369c0.999,0.25,1.885,0.901,2.656,1.559c1.578,1.349,2.964,2.963,4.343,4.511
					c1.295,1.455,2.653,3.398,4.722,3.725c0.947,0.15,2.01-0.134,2.674-0.85c0.084,0.246,0.155,0.497,0.189,0.758
					c0.155,1.165-0.34,2.561-1.513,3c-1.047,0.392-2.253,0.005-3.22-0.435c-1.155-0.526-2.223-1.243-3.221-2.023
					c-0.679-0.531-1.351-1.081-1.901-1.748c-0.737-0.895-1.408-1.842-2.113-2.763C236.643,159.641,235.717,158.468,234.634,157.462z
					"/>
				<path style="fill:#00AEEF;" d="M241.98,155.928c-0.67-0.382-1.546-0.755-2.31-0.465c-0.088-0.1-0.168-0.205-0.232-0.319
					c-0.284-0.504,0.119-0.987,0.63-1.098c0.785-0.171,1.67,0.126,2.404,0.381c0.671,0.232,1.319,0.52,1.972,0.796
					c1.646,0.695,3.528,1.891,5.395,1.435c0.679-0.166,1.241-0.651,1.497-1.283c0.471,0.445,0.822,1.011,0.944,1.644
					c0.632,3.273-2.704,3.363-5.009,2.414C245.267,158.609,243.834,156.984,241.98,155.928z"/>
				<path style="fill:#00AEEF;" d="M214.828,161.575c0.012-0.226,0.048-0.443,0.105-0.651c0.383-1.412,1.696-2.441,2.532-3.586
					c1.185-1.625,1.959-3.506,2.138-5.51c0.291-3.253,0.342-6.831,3.952-8.085c2.785-0.968,5.671-0.117,8.323,1.38
					c-0.311-0.023-0.621-0.044-0.929-0.041c-1.327,0.011-2.671,0.274-3.849,0.9c-1.172,0.623-2.26,1.443-2.892,2.636
					c-1.177,2.22-0.653,4.908-1.73,7.151c-0.604,1.258-1.626,2.259-2.51,3.318c-0.891,1.068-1.609,2.179-1.953,3.54
					c-0.226,0.895-0.118,1.944,0.37,2.742c-0.779-0.165-1.524-0.502-2.123-0.982C215.409,163.703,214.772,162.666,214.828,161.575z"
					/>
			</g>
			<g>
				<g>
					<path style="fill:#00AEEF;" d="M200.506,115.538c3.024,5.333,10.612,8.663,16.054,4.78c1.736-1.239,2.642-3.168,2.825-5.26
						c0.188-2.152-0.284-4.341-0.969-6.371c-0.759-2.25-1.817-4.437-3.205-6.368c-1.41-1.962-3.224-3.678-5.46-4.65
						c-3.378-1.469-7.302-0.973-10.165,1.36c-1.975,1.609-2.403,4.447-2.126,6.849c0.149,1.288,0.404,2.623,0.758,3.944
						C198.759,111.837,199.53,113.817,200.506,115.538z"/>
					<path style="fill:#09556D;" d="M211.243,122.316c-0.78,0-1.579-0.089-2.393-0.269c-3.531-0.781-6.83-3.217-8.61-6.358
						c-0.949-1.674-1.751-3.675-2.317-5.787c-0.356-1.33-0.614-2.672-0.767-3.988c-0.168-1.456-0.286-5.066,2.237-7.122
						c2.94-2.397,6.956-2.934,10.48-1.403c2.096,0.911,3.975,2.51,5.586,4.752c1.339,1.864,2.431,4.034,3.246,6.449
						c0.829,2.458,1.151,4.583,0.983,6.496c-0.203,2.321-1.251,4.268-2.952,5.482C215.113,121.726,213.245,122.316,211.243,122.316z
						 M205.76,97.14c-2.149,0-4.26,0.725-5.981,2.127c-2.288,1.864-2.171,5.22-2.014,6.576c0.148,1.286,0.401,2.599,0.75,3.9
						c0.552,2.063,1.333,4.014,2.257,5.644v0.001c1.698,2.994,4.844,5.317,8.21,6.062c1.904,0.421,4.732,0.523,7.4-1.38
						c1.552-1.107,2.51-2.896,2.698-5.037c0.16-1.826-0.152-3.869-0.954-6.246c-0.795-2.357-1.86-4.473-3.164-6.287
						c-1.545-2.152-3.34-3.682-5.333-4.548C208.38,97.407,207.063,97.14,205.76,97.14z"/>
				</g>
				<path style="fill:#9DD9E8;" d="M218.751,116.966c0.22-1.783,0.093-3.57-0.257-5.328c-0.516-2.594-1.463-5.15-2.758-7.456
					c-1.001-1.782-2.219-3.481-3.718-4.88c-0.587-0.548-1.229-1.045-1.915-1.461c2.073,0.994,3.774,2.622,5.109,4.479
					c1.388,1.931,2.446,4.118,3.205,6.368c0.685,2.03,1.157,4.219,0.969,6.371c-0.089,1.017-0.35,1.995-0.793,2.874
					C218.662,117.598,218.713,117.269,218.751,116.966z"/>
				<path style="fill:#00AEEF;" d="M198.219,109.823c-0.354-1.321-0.609-2.656-0.758-3.944c-0.277-2.403,0.151-5.24,2.126-6.849
					c2.435-1.984,5.636-2.634,8.617-1.882c-0.107,1.12-0.805,2.049-1.551,2.888c-0.889,1.001-1.891,1.988-2.305,3.298
					c-0.526,1.664-0.19,3.56,0.21,5.213c0.36,1.489,0.828,2.99,1.456,4.39c0.597,1.329,1.355,2.59,2.288,3.71
					c0.919,1.104,2.05,2.105,3.401,2.638c1.357,0.535,2.828,0.502,4.158-0.1c1.363-0.616,2.421-1.717,3.079-3.051
					c0.175-0.355,0.322-0.723,0.447-1.098c-0.001,0.008-0.001,0.016-0.001,0.023c-0.183,2.092-1.089,4.021-2.825,5.26
					c-5.442,3.883-13.031,0.554-16.054-4.78C199.53,113.817,198.759,111.837,198.219,109.823z"/>
			</g>
			<g>
				<g>
					<path style="fill:#00AEEF;" d="M212.478,139.382c3.024,5.333,10.612,8.663,16.054,4.78c1.736-1.239,2.642-3.168,2.825-5.26
						c0.188-2.152-0.284-4.34-0.969-6.371c-0.759-2.25-1.817-4.437-3.205-6.368c-1.41-1.962-3.224-3.678-5.46-4.65
						c-3.378-1.469-7.302-0.973-10.165,1.359c-1.975,1.609-2.403,4.447-2.126,6.849c0.149,1.288,0.404,2.624,0.758,3.944
						C210.731,135.682,211.502,137.661,212.478,139.382z"/>
					<path style="fill:#09556D;" d="M223.214,146.16c-0.779,0-1.578-0.089-2.392-0.269c-3.531-0.781-6.83-3.217-8.61-6.357v-0.001
						c-0.95-1.675-1.751-3.677-2.317-5.788c-0.356-1.325-0.613-2.668-0.766-3.988c-0.168-1.456-0.286-5.066,2.237-7.122
						c2.943-2.396,6.96-2.933,10.48-1.403c2.096,0.911,3.975,2.51,5.586,4.752c1.339,1.864,2.431,4.034,3.246,6.449
						c0.83,2.458,1.152,4.583,0.984,6.496c-0.203,2.321-1.251,4.267-2.952,5.482C227.085,145.57,225.217,146.16,223.214,146.16z
						 M212.744,139.231c1.698,2.995,4.844,5.317,8.21,6.062c1.904,0.422,4.732,0.523,7.4-1.38c1.552-1.108,2.51-2.897,2.697-5.037
						c0.16-1.827-0.152-3.869-0.954-6.246c-0.795-2.357-1.859-4.473-3.163-6.287c-1.546-2.152-3.34-3.681-5.333-4.548
						c-3.312-1.442-7.086-0.936-9.85,1.316c-2.288,1.864-2.171,5.221-2.014,6.576c0.149,1.291,0.401,2.603,0.749,3.9
						C211.039,135.649,211.82,137.6,212.744,139.231L212.744,139.231z"/>
				</g>
				<path style="fill:#9DD9E8;" d="M230.723,140.81c0.22-1.783,0.093-3.57-0.257-5.328c-0.516-2.594-1.463-5.15-2.758-7.456
					c-1.001-1.782-2.219-3.481-3.718-4.881c-0.587-0.548-1.229-1.045-1.915-1.461c2.073,0.994,3.775,2.622,5.109,4.479
					c1.387,1.931,2.446,4.118,3.205,6.368c0.685,2.03,1.157,4.219,0.969,6.371c-0.089,1.017-0.35,1.995-0.793,2.874
					C230.634,141.442,230.685,141.113,230.723,140.81z"/>
				<path style="fill:#00AEEF;" d="M210.191,133.667c-0.354-1.321-0.609-2.656-0.758-3.944c-0.277-2.403,0.151-5.24,2.126-6.849
					c2.435-1.984,5.636-2.634,8.617-1.882c-0.107,1.12-0.805,2.049-1.551,2.888c-0.89,1.001-1.892,1.988-2.306,3.298
					c-0.526,1.664-0.19,3.56,0.21,5.213c0.36,1.489,0.828,2.99,1.457,4.389c0.597,1.329,1.355,2.59,2.288,3.711
					c0.919,1.104,2.049,2.105,3.401,2.638c1.358,0.535,2.828,0.502,4.158-0.1c1.363-0.616,2.421-1.717,3.079-3.051
					c0.175-0.355,0.322-0.723,0.447-1.098c-0.001,0.008-0.001,0.016-0.001,0.024c-0.183,2.092-1.089,4.021-2.825,5.26
					c-5.442,3.883-13.031,0.554-16.054-4.78C211.502,137.661,210.731,135.682,210.191,133.667z"/>
			</g>
		</g>
		<g>
			<g>
				<path style="fill:#00AEEF;" d="M115.93,260.506c-0.392-2.328-1.103-4.593-1.972-6.575c-2.245-5.12-7.378-6.949-12.685-6.118
					c-5.239,0.821-10.461,3.083-15.371,5.012c-4.996,1.963-9.929,4.159-14.496,6.998c-1.639,1.018-3.202,2.143-4.747,3.298
					c-1.295,0.967-2.571,1.982-3.706,3.136c-0.867,0.882-2.076,2.149-2.025,3.491c0.063,1.64,2.11,1.713,3.33,1.639
					c1.972-0.119,3.97-0.567,5.881-1.033c0.966-0.235,1.915-0.52,2.864-0.806c-0.027,0.021-0.056,0.04-0.084,0.061
					c-0.883,0.679-1.721,1.432-2.467,2.26c-0.677,0.752-1.355,1.625-1.611,2.624c-0.248,0.968,0.007,1.918,0.753,2.597
					c0.677,0.616,1.619,0.808,2.509,0.804c0.946-0.004,1.881-0.203,2.797-0.424c1.194-0.288,2.372-0.611,3.529-1.025
					c1.464-0.524,2.884-1.152,4.295-1.801c-0.279,0.321-0.541,0.656-0.76,1.02c-0.439,0.731-0.729,1.597-0.53,2.451
					c0.249,1.072,1.164,1.895,2.211,2.15c0.745,0.182,1.526,0.179,2.287,0.143c6.665-0.317,13.402-1.808,19.776-3.737
					c3.341-1.011,7.161-2.357,9.032-5.528C116.596,268,116.517,263.992,115.93,260.506z"/>
				<path style="fill:#09556D;" d="M85.202,280.734c-0.536,0-1.087-0.039-1.63-0.171c-1.213-0.296-2.17-1.23-2.437-2.378
					c-0.19-0.82,0.005-1.746,0.566-2.678c0.017-0.029,0.035-0.057,0.053-0.086c-1.031,0.46-2.112,0.916-3.221,1.313
					c-1.03,0.368-2.161,0.697-3.561,1.034c-0.858,0.207-1.859,0.428-2.867,0.432c-0.01,0-0.019,0-0.029,0
					c-1.123,0-2.051-0.306-2.687-0.884c-0.817-0.744-1.124-1.801-0.843-2.899c0.282-1.099,1.046-2.049,1.68-2.753
					c0.427-0.474,0.899-0.94,1.41-1.392c-0.466,0.133-0.945,0.263-1.424,0.379c-1.799,0.44-3.89,0.918-5.935,1.042
					c-1.462,0.089-2.499-0.137-3.089-0.671c-0.355-0.322-0.545-0.746-0.565-1.261c-0.057-1.512,1.301-2.892,2.113-3.717
					c1.214-1.234,2.573-2.293,3.741-3.166c1.37-1.024,3.008-2.218,4.769-3.313c3.959-2.46,8.445-4.626,14.546-7.022
					c0.617-0.242,1.239-0.49,1.866-0.74c4.403-1.754,8.955-3.567,13.57-4.29c5.913-0.924,10.902,1.486,13.012,6.297
					c0.928,2.115,1.617,4.413,1.993,6.647c0.762,4.525,0.35,8.173-1.227,10.845c-1.91,3.235-5.754,4.62-9.208,5.665
					c-7.404,2.241-13.897,3.467-19.85,3.749C85.703,280.726,85.454,280.734,85.202,280.734z M83.889,273.772l-0.934,1.073
					c-0.313,0.361-0.545,0.671-0.729,0.977c-0.333,0.553-0.689,1.388-0.494,2.224c0.212,0.912,1.01,1.684,1.985,1.923
					c0.722,0.175,1.483,0.167,2.2,0.134c5.903-0.28,12.347-1.498,19.702-3.724c3.343-1.012,7.06-2.346,8.857-5.39
					c1.502-2.544,1.889-6.054,1.151-10.432l0,0c-0.368-2.185-1.043-4.434-1.95-6.502c-2.022-4.614-6.639-6.83-12.356-5.938
					c-4.546,0.712-9.067,2.512-13.438,4.253c-0.628,0.25-1.251,0.498-1.869,0.741c-6.065,2.382-10.521,4.533-14.447,6.972
					c-1.741,1.082-3.365,2.267-4.726,3.283c-1.15,0.86-2.486,1.901-3.671,3.105c-0.743,0.754-1.985,2.018-1.937,3.264
					c0.013,0.35,0.132,0.621,0.364,0.831c0.319,0.289,1.032,0.61,2.641,0.514c1.995-0.12,4.053-0.592,5.827-1.025
					c0.986-0.24,1.975-0.539,2.848-0.802l1.622-0.49l-1.398,1.062c-0.949,0.729-1.765,1.477-2.459,2.247
					c-0.587,0.652-1.293,1.525-1.541,2.495c-0.223,0.872,0.019,1.708,0.662,2.295c0.656,0.597,1.594,0.724,2.276,0.724
					c0.008,0,0.017,0,0.026,0c0.943-0.004,1.902-0.216,2.726-0.415c1.378-0.332,2.49-0.654,3.498-1.014
					c1.488-0.533,2.932-1.176,4.27-1.791L83.889,273.772z"/>
			</g>
			<path style="fill:#9DD9E8;" d="M78.112,267.944c-0.001-0.005-0.002-0.007-0.005-0.02c-0.005-0.021-0.01-0.041-0.015-0.062
				c-0.006-0.023-0.008-0.034-0.009-0.039c0.001,0.005,0,0.009-0.013-0.019c-0.004-0.008-0.015-0.028-0.025-0.044
				c-0.015-0.017-0.04-0.039-0.05-0.048c-0.028-0.016-0.068-0.035-0.073-0.04c-0.035-0.012-0.071-0.022-0.107-0.029
				c-0.004-0.001-0.002-0.001-0.005-0.001c-0.004,0-0.003,0-0.012,0c-0.022-0.001-0.044-0.003-0.066-0.003
				c-0.036,0.001-0.072,0.003-0.107,0.005c-0.171,0.099-0.346,0.193-0.514,0.298c-0.749,0.465-1.48,0.968-2.171,1.516
				c-0.548,0.435-1.1,0.898-1.541,1.446c-0.062,0.077-0.135,0.179-0.199,0.285c-0.073,0.123-0.087,0.14-0.114,0.239
				c-0.007,0.027-0.014,0.053-0.02,0.08c0,0.003,0,0.001-0.001,0.009c-0.002,0.01-0.003,0.025-0.003,0.038
				c0.001,0.013,0.006,0.03,0.011,0.043c0.001,0.001,0,0,0.001,0.002c0.003,0.005,0.002,0.005,0.003,0.008
				c0.005,0.01,0.006,0.013,0.001,0.004c0.001,0.005,0.004,0.01,0.003,0.01c0.005,0.003,0.013,0.008,0.03,0.021
				c0.004,0.003,0.003,0.002,0.004,0.004c0.005,0.003,0.008,0.005,0.021,0.013c0.02,0.013,0.042,0.023,0.063,0.034
				c0.003,0.001,0.041,0.016,0.107,0.035c0.129,0.035,0.214,0.044,0.342,0.053c0.344,0.023,0.683,0.006,1.019-0.073
				c0.677-0.16,1.299-0.516,1.824-0.968c0.491-0.423,0.916-0.925,1.234-1.491c0.139-0.248,0.234-0.448,0.312-0.711
				c0.071-0.239,0.097-0.338,0.076-0.583C78.111,267.945,78.112,267.946,78.112,267.944z"/>
			<path style="fill:#9DD9E8;" d="M88.865,273.202c-0.001-0.003-0.002-0.008-0.004-0.012c-0.004-0.008-0.008-0.015-0.009-0.018
				c-0.003-0.005-0.004-0.008-0.008-0.014c0-0.001,0,0-0.001,0c-0.005-0.005-0.013-0.012-0.018-0.018
				c-0.011-0.007-0.023-0.013-0.035-0.02c-0.026-0.007-0.052-0.014-0.078-0.02c-0.009,0-0.055-0.006-0.076-0.006
				c-0.041-0.001-0.083,0.002-0.124,0.005c-0.012,0.001-0.015,0.002-0.018,0.002c-0.013,0.002-0.025,0.004-0.038,0.006
				c-0.025,0.005-0.049,0.009-0.074,0.015c-0.059,0.013-0.118,0.028-0.176,0.045c-0.072,0.021-0.141,0.05-0.211,0.076
				c-0.314,0.168-0.625,0.342-0.926,0.531c-0.421,0.264-0.795,0.519-1.145,0.835c-0.081,0.073-0.16,0.149-0.235,0.229
				c-0.028,0.031-0.056,0.062-0.083,0.093c-0.014,0.016-0.027,0.032-0.04,0.048c-0.002,0.003-0.005,0.007-0.007,0.009
				c-0.047,0.065-0.085,0.132-0.124,0.202c-0.005,0.01-0.006,0.009-0.009,0.013c0,0.004,0.001,0.004-0.001,0.014
				c-0.007,0.032-0.016,0.064-0.024,0.096c0.019-0.079,0.013-0.037,0.009,0.001c0.001,0.009,0.002,0.019,0.005,0.028
				c0.013,0.012,0.021,0.019,0.019,0.02c0.004,0.005,0.009,0.009,0.013,0.014c0.005,0.006,0.004,0.005,0.007,0.008
				c0.001,0.001,0,0,0.002,0.001c0.011,0.007,0.021,0.015,0.033,0.021c0.032,0.017,0.063,0.034,0.096,0.05
				c0.01,0.003,0.071,0.027,0.085,0.032c0.045,0.015,0.09,0.027,0.136,0.038c0.462,0.113,0.854,0.104,1.315-0.09
				c0.148-0.062,0.401-0.212,0.571-0.335c0.073-0.052,0.172-0.136,0.264-0.22c0.086-0.08,0.169-0.163,0.248-0.25
				c0.156-0.172,0.248-0.291,0.374-0.497c0.058-0.095,0.112-0.192,0.16-0.293c0.007-0.016,0.015-0.032,0.022-0.048
				c0.004-0.009,0.004-0.008,0.006-0.012c0.001-0.004,0.001-0.002,0.004-0.01c0.015-0.039,0.03-0.077,0.043-0.116
				c0.026-0.079,0.045-0.16,0.06-0.241c0.002-0.019,0.006-0.05,0.006-0.061c0.001-0.038-0.001-0.075-0.003-0.113
				C88.881,273.326,88.87,273.239,88.865,273.202z"/>
			<path style="fill:#9DD9E8;" d="M66.656,265.135c0.65,0.255,1.372,0.247,2.049,0.093c1.624-0.369,3.108-1.355,4.343-2.441
				c1.016-0.893,2.083-1.997,2.6-3.283c-0.801-0.398-1.766-0.188-2.608,0.149c-1.321,0.673-2.602,1.444-3.771,2.351
				C68.247,262.797,67.037,263.834,66.656,265.135z"/>
			<path style="fill:#00AEEF;" d="M96.146,249.03c-0.287,0.344-0.549,0.707-0.766,1.096c-0.469,0.841-0.696,1.849-0.23,2.742
				c0.565,1.083,1.805,1.74,2.904,2.153c2.126,0.8,4.516,0.788,6.722,0.36c2.697-0.523,5.69-1.804,7.73-3.856
				c-2.619-3.273-6.865-4.397-11.234-3.712C99.559,248.082,97.847,248.515,96.146,249.03z"/>
			<path style="fill:#00AEEF;" d="M71.689,269.936c0.019-0.015,0.036-0.031,0.055-0.046c3.633-2.918,7.827-4.964,11.863-7.255
				c-2.082,0.798-4.127,1.691-6.232,2.43c-1.964,0.689-3.96,1.376-5.981,1.876c-1.799,0.445-3.903,0.838-5.709,0.218
				c-0.673-0.231-1.371-0.66-1.457-1.431c-0.028-0.251,0.01-0.497,0.087-0.734c-0.468,0.406-0.928,0.822-1.362,1.263
				c-0.867,0.882-2.076,2.149-2.025,3.491c0.063,1.64,2.11,1.713,3.33,1.639c1.972-0.119,3.97-0.567,5.881-1.033
				C70.66,270.226,71.175,270.084,71.689,269.936z"/>
			<path style="fill:#00AEEF;" d="M81.964,275.664c-0.002,0.004-0.005,0.008-0.007,0.013c0.232-0.237,0.474-0.466,0.727-0.682
				c0.836-0.715,1.749-1.333,2.665-1.94c1.073-0.713,2.128-1.452,3.198-2.169c1.825-1.223,3.66-2.436,5.416-3.756
				c-2.737,1.089-5.429,2.286-8.136,3.447c-2.854,1.224-5.731,2.4-8.691,3.343c-1.076,0.342-2.184,0.6-3.296,0.794
				c-1.335,0.233-2.875,0.481-4.202,0.079c-0.276-0.084-0.542-0.214-0.766-0.392c-0.009,0.032-0.021,0.062-0.029,0.094
				c-0.248,0.968,0.007,1.918,0.753,2.597c0.677,0.616,1.619,0.808,2.509,0.804c0.946-0.004,1.881-0.203,2.797-0.424
				c1.194-0.288,2.372-0.611,3.529-1.025c1.464-0.524,2.884-1.152,4.295-1.801C82.445,274.965,82.183,275.3,81.964,275.664z"/>
			<path style="fill:#00AEEF;" d="M115.93,260.506c-0.392-2.328-1.103-4.593-1.972-6.575c-0.107-0.244-0.227-0.474-0.346-0.703
				c0.427,2.473,0.558,5.001,0.233,7.483c-0.473,3.616-1.99,7.06-4.727,9.53c-3.239,2.923-7.464,4.749-11.607,5.964
				c-1.916,0.561-3.864,0.988-5.831,1.322c-1.327,0.226-2.639,0.53-3.967,0.749c-1.504,0.248-3.054,0.459-4.58,0.341
				c-0.542-0.042-1.117-0.132-1.642-0.324c0.305,0.983,1.167,1.732,2.154,1.973c0.745,0.182,1.526,0.179,2.287,0.143
				c6.665-0.317,13.402-1.808,19.776-3.737c3.341-1.011,7.161-2.357,9.032-5.528C116.596,268,116.517,263.992,115.93,260.506z"/>
			<g>
				<path style="fill:#00AEEF;" d="M98.029,251.342c0.344,0.785,0.993,1.404,2.136,1.73c2.307,0.658,5.466,0.645,7.747-0.068
					c3.269-1.022,2.566-4.963,2.633-7.714c0.354-14.383-0.05-91.482-0.738-105.845c-0.187-3.899-0.39-7.798-0.647-11.694
					c0,0-12.218,0.803-12.218,0.804c0.649,9.859,1.05,19.743,1.289,29.619c0.131,5.395,0.199,10.793,0.146,16.19
					c-0.025,2.529,0.007,67.777-0.174,70.3C98.05,246.774,97.133,249.3,98.029,251.342z"/>
				<path style="fill:#09556D;" d="M103.924,253.862c-1.34,0-2.682-0.165-3.843-0.496c-1.137-0.324-1.922-0.964-2.333-1.901l0,0
					c-0.675-1.54-0.386-3.276-0.106-4.955c0.109-0.656,0.213-1.277,0.255-1.868c0.142-1.977,0.153-4.012,0.163-5.98
					c0.003-0.54,0.005-63.764,0.011-64.301c0.048-4.847,0-10.14-0.146-16.18c-0.258-10.672-0.68-20.357-1.288-29.606l-0.02-0.305
					l12.829-0.844l0.02,0.305c0.221,3.362,0.421,6.97,0.647,11.7c0.812,16.939,1.046,93.346,0.739,105.867
					c-0.011,0.436-0.002,0.904,0.007,1.385c0.048,2.534,0.108,5.687-2.855,6.613C106.796,253.673,105.361,253.862,103.924,253.862z
					 M98.309,251.219c0.339,0.774,0.974,1.284,1.939,1.559c2.267,0.646,5.38,0.619,7.571-0.067c2.526-0.789,2.475-3.447,2.426-6.018
					c-0.009-0.49-0.018-0.966-0.007-1.411c0.307-12.506,0.073-88.899-0.738-105.823c-0.219-4.583-0.414-8.111-0.627-11.382
					l-11.607,0.763c0.599,9.166,1.014,18.763,1.27,29.327c0.146,6.047,0.194,11.346,0.146,16.2
					c-0.005,0.536-0.008,63.76-0.011,64.298c-0.01,1.978-0.02,4.023-0.164,6.021c-0.045,0.619-0.15,1.253-0.262,1.924
					C97.981,248.201,97.707,249.846,98.309,251.219L98.309,251.219z"/>
			</g>
			<path style="fill:#9DD9E8;" d="M98.376,174.364c-0.02,2.061-0.009,66.829-0.1,68.895c0.246-0.964,0.499-1.927,0.73-2.895
				c0.418-1.755,0.618-66.171,0.715-67.973c0.271-5.071-0.128-10.133-0.324-15.199c-0.197-5.086-0.324-10.174-0.539-15.259
				c-0.189-4.488-0.457-8.975-0.893-13.446c-0.633,0.042-1.023,0.067-1.023,0.067c0.649,9.859,1.05,19.743,1.289,29.619
				C98.361,163.569,98.43,168.967,98.376,174.364z"/>
			<path style="fill:#00AEEF;" d="M110.545,245.29c0.354-14.383-0.05-91.482-0.738-105.845c-0.187-3.899-0.391-7.799-0.647-11.694
				c0,0-1.451,0.096-3.353,0.221c0.4,3.625,0.755,7.255,1.044,10.891c0.512,6.436,0.835,12.888,0.919,19.345
				c0.042,3.233,0.025,6.466-0.057,9.698c-0.076,2.989-0.255,68.654-0.391,71.64c-0.08,1.766-0.138,3.531-0.393,5.283
				c-0.255,1.75-0.687,3.62-1.764,5.064c-1.101,1.477-3.033,2.331-4.868,1.893c-1.068-0.255-1.95-0.91-2.611-1.759
				c0.053,0.454,0.158,0.895,0.342,1.316c0.344,0.785,0.993,1.404,2.136,1.73c2.307,0.658,5.466,0.645,7.747-0.068
				C111.18,251.982,110.477,248.04,110.545,245.29z"/>
		</g>
		<g>
			<g>
				<path style="fill:#00AEEF;" d="M136.831,271.144c1.872,3.171,5.691,4.517,9.032,5.528c6.374,1.928,13.111,3.42,19.776,3.737
					c0.761,0.036,1.542,0.039,2.287-0.143c1.047-0.256,1.962-1.079,2.211-2.15c0.199-0.854-0.091-1.72-0.53-2.451
					c-0.219-0.364-0.481-0.698-0.76-1.02c1.411,0.649,2.831,1.277,4.295,1.801c1.157,0.414,2.335,0.737,3.529,1.025
					c0.915,0.22,1.851,0.42,2.797,0.424c0.89,0.004,1.832-0.188,2.509-0.804c0.746-0.679,1.001-1.629,0.753-2.597
					c-0.256-0.999-0.933-1.872-1.611-2.624c-0.746-0.828-1.584-1.581-2.467-2.26c-0.027-0.021-0.056-0.04-0.084-0.061
					c0.949,0.286,1.898,0.571,2.864,0.806c1.911,0.466,3.909,0.914,5.881,1.033c1.219,0.074,3.267,0,3.33-1.639
					c0.051-1.342-1.158-2.609-2.025-3.491c-1.135-1.154-2.411-2.168-3.706-3.136c-1.545-1.155-3.108-2.279-4.747-3.298
					c-4.568-2.838-9.5-5.035-14.496-6.998c-4.91-1.929-10.132-4.191-15.371-5.012c-5.307-0.832-10.439,0.998-12.685,6.118
					c-0.869,1.981-1.579,4.246-1.972,6.575C135.055,263.992,134.976,268,136.831,271.144z"/>
				<path style="fill:#09556D;" d="M166.37,280.734c-0.252,0-0.501-0.008-0.745-0.02c-5.952-0.282-12.446-1.508-19.85-3.749
					c-3.453-1.045-7.297-2.43-9.208-5.665l0,0c-1.577-2.67-1.989-6.319-1.227-10.845c0.377-2.233,1.066-4.532,1.993-6.647
					c2.142-4.884,7.005-7.236,13.012-6.297c4.614,0.723,9.167,2.536,13.57,4.29c0.626,0.249,1.249,0.497,1.866,0.74
					c6.101,2.397,10.587,4.563,14.546,7.022c1.761,1.094,3.399,2.289,4.769,3.313c1.17,0.874,2.528,1.933,3.741,3.166
					c0.812,0.825,2.17,2.206,2.113,3.717c-0.02,0.515-0.21,0.939-0.565,1.261c-0.59,0.534-1.628,0.759-3.089,0.671
					c-2.044-0.123-4.135-0.602-5.935-1.042c-0.481-0.116-0.959-0.246-1.424-0.379c0.511,0.453,0.983,0.918,1.41,1.392
					c0.635,0.705,1.399,1.654,1.68,2.753c0.282,1.098-0.026,2.155-0.843,2.899c-0.636,0.578-1.565,0.884-2.687,0.884
					c-0.01,0-0.02,0-0.029,0c-1.009-0.004-2.009-0.225-2.867-0.432c-1.4-0.337-2.531-0.666-3.56-1.034
					c-1.111-0.398-2.192-0.853-3.222-1.313c0.018,0.029,0.035,0.057,0.052,0.086c0.561,0.933,0.757,1.859,0.566,2.678
					c-0.267,1.148-1.224,2.082-2.436,2.378C167.457,280.695,166.906,280.734,166.37,280.734z M137.095,270.989
					c1.798,3.045,5.515,4.379,8.857,5.39c7.355,2.226,13.8,3.444,19.702,3.724c0.717,0.033,1.479,0.041,2.201-0.134
					c0.975-0.239,1.773-1.011,1.985-1.923c0.195-0.835-0.161-1.67-0.494-2.224c-0.183-0.305-0.414-0.615-0.729-0.977l-0.93-1.073
					l1.29,0.594c1.337,0.615,2.779,1.258,4.27,1.791c1.008,0.36,2.119,0.683,3.497,1.014c0.824,0.199,1.783,0.411,2.726,0.415
					c0.009,0,0.017,0,0.026,0c0.682,0,1.62-0.127,2.276-0.725c0.644-0.586,0.886-1.422,0.662-2.294
					c-0.246-0.964-0.918-1.802-1.541-2.495c-0.694-0.77-1.51-1.518-2.426-2.223l-0.082-0.06l-1.348-1.026l1.622,0.49
					c0.872,0.263,1.86,0.561,2.848,0.802c1.774,0.433,3.833,0.905,5.827,1.025c1.607,0.096,2.322-0.226,2.641-0.514
					c0.231-0.21,0.35-0.481,0.363-0.831c0.048-1.247-1.194-2.51-1.937-3.264c-1.184-1.203-2.52-2.245-3.67-3.105
					c-1.36-1.016-2.985-2.201-4.726-3.283c-3.926-2.439-8.382-4.59-14.447-6.972c-0.618-0.243-1.242-0.491-1.869-0.741
					c-4.372-1.741-8.892-3.541-13.438-4.253c-5.712-0.894-10.333,1.324-12.357,5.938c-0.908,2.069-1.582,4.318-1.95,6.502
					C135.206,264.936,135.594,268.446,137.095,270.989L137.095,270.989z"/>
			</g>
			<path style="fill:#9DD9E8;" d="M173.46,267.944c0.002-0.005,0.002-0.007,0.005-0.02c0.005-0.021,0.01-0.041,0.015-0.062
				c0.006-0.023,0.008-0.034,0.009-0.039c-0.001,0.005,0,0.009,0.013-0.019c0.004-0.008,0.016-0.028,0.025-0.044
				c0.015-0.017,0.04-0.039,0.05-0.048c0.028-0.016,0.068-0.035,0.073-0.04c0.035-0.012,0.071-0.022,0.107-0.029
				c0.004-0.001,0.002-0.001,0.005-0.001c0.004,0,0.003,0,0.012,0c0.022-0.001,0.044-0.003,0.066-0.003
				c0.036,0.001,0.072,0.003,0.107,0.005c0.171,0.099,0.346,0.193,0.514,0.298c0.749,0.465,1.48,0.968,2.171,1.516
				c0.548,0.435,1.1,0.898,1.541,1.446c0.062,0.077,0.135,0.179,0.199,0.285c0.073,0.123,0.087,0.14,0.114,0.239
				c0.007,0.027,0.014,0.053,0.02,0.08c0,0.003,0,0.001,0.001,0.009c0.002,0.01,0.003,0.025,0.003,0.038
				c-0.001,0.013-0.006,0.03-0.011,0.043c-0.001,0.001,0,0-0.001,0.002c-0.003,0.005-0.002,0.005-0.003,0.008
				c-0.005,0.01-0.006,0.013-0.001,0.004c-0.001,0.005-0.004,0.01-0.003,0.01c-0.005,0.003-0.013,0.008-0.03,0.021
				c-0.004,0.003-0.003,0.002-0.004,0.004c-0.005,0.003-0.008,0.005-0.021,0.013c-0.02,0.013-0.042,0.023-0.063,0.034
				c-0.003,0.001-0.041,0.016-0.107,0.035c-0.129,0.035-0.214,0.044-0.342,0.053c-0.344,0.023-0.683,0.006-1.019-0.073
				c-0.677-0.16-1.299-0.516-1.824-0.968c-0.491-0.423-0.916-0.925-1.234-1.491c-0.139-0.248-0.234-0.448-0.312-0.711
				c-0.071-0.239-0.096-0.338-0.076-0.583C173.461,267.945,173.46,267.946,173.46,267.944z"/>
			<path style="fill:#9DD9E8;" d="M162.707,273.202c0-0.003,0.002-0.008,0.004-0.012c0.004-0.008,0.007-0.015,0.008-0.018
				c0.003-0.005,0.004-0.008,0.008-0.014c0.001-0.001,0,0,0.001,0c0.005-0.005,0.013-0.012,0.018-0.018
				c0.012-0.007,0.023-0.013,0.035-0.02c0.026-0.007,0.052-0.014,0.078-0.02c0.009,0,0.055-0.006,0.076-0.006
				c0.042-0.001,0.083,0.002,0.124,0.005c0.012,0.001,0.015,0.002,0.018,0.002c0.013,0.002,0.025,0.004,0.038,0.006
				c0.025,0.005,0.049,0.009,0.074,0.015c0.059,0.013,0.118,0.028,0.176,0.045c0.072,0.021,0.141,0.05,0.211,0.076
				c0.314,0.168,0.624,0.342,0.926,0.531c0.421,0.264,0.795,0.519,1.145,0.835c0.081,0.073,0.16,0.149,0.235,0.229
				c0.028,0.031,0.056,0.062,0.083,0.093c0.014,0.016,0.027,0.032,0.04,0.048c0.002,0.003,0.005,0.007,0.007,0.009
				c0.046,0.065,0.085,0.132,0.124,0.202c0.005,0.01,0.006,0.009,0.009,0.013c0,0.004-0.001,0.004,0.001,0.014
				c0.007,0.032,0.016,0.064,0.024,0.096c-0.019-0.079-0.013-0.037-0.009,0.001c-0.001,0.009-0.002,0.019-0.004,0.028
				c-0.013,0.012-0.021,0.019-0.019,0.02c-0.004,0.005-0.009,0.009-0.013,0.014c-0.005,0.006-0.004,0.005-0.007,0.008
				c-0.001,0.001,0,0-0.002,0.001c-0.011,0.007-0.021,0.015-0.033,0.021c-0.032,0.017-0.063,0.034-0.096,0.05
				c-0.01,0.003-0.071,0.027-0.085,0.032c-0.045,0.015-0.09,0.027-0.136,0.038c-0.462,0.113-0.854,0.104-1.315-0.09
				c-0.147-0.062-0.4-0.212-0.571-0.335c-0.072-0.052-0.172-0.136-0.264-0.22c-0.087-0.08-0.169-0.163-0.248-0.25
				c-0.156-0.172-0.248-0.291-0.375-0.497c-0.058-0.095-0.112-0.192-0.16-0.293c-0.007-0.016-0.015-0.032-0.022-0.048
				c-0.004-0.009-0.004-0.008-0.006-0.012c-0.001-0.004-0.001-0.002-0.004-0.01c-0.015-0.039-0.03-0.077-0.042-0.116
				c-0.026-0.079-0.045-0.16-0.06-0.241c-0.002-0.019-0.006-0.05-0.006-0.061c-0.001-0.038,0.001-0.075,0.003-0.113
				C162.691,273.326,162.702,273.239,162.707,273.202z"/>
			<path style="fill:#9DD9E8;" d="M184.916,265.135c-0.65,0.255-1.372,0.247-2.049,0.093c-1.624-0.369-3.108-1.355-4.343-2.441
				c-1.016-0.893-2.083-1.997-2.599-3.283c0.801-0.398,1.766-0.188,2.608,0.149c1.321,0.673,2.602,1.444,3.771,2.351
				C183.325,262.797,184.535,263.834,184.916,265.135z"/>
			<path style="fill:#00AEEF;" d="M155.426,249.03c0.287,0.344,0.549,0.707,0.766,1.096c0.469,0.841,0.697,1.849,0.23,2.742
				c-0.565,1.083-1.805,1.74-2.905,2.153c-2.126,0.8-4.516,0.788-6.722,0.36c-2.697-0.523-5.69-1.804-7.73-3.856
				c2.619-3.273,6.865-4.397,11.234-3.712C152.013,248.082,153.725,248.515,155.426,249.03z"/>
			<path style="fill:#00AEEF;" d="M179.883,269.936c-0.019-0.015-0.036-0.031-0.055-0.046c-3.633-2.918-7.827-4.964-11.863-7.255
				c2.082,0.798,4.127,1.691,6.232,2.43c1.964,0.689,3.96,1.376,5.981,1.876c1.799,0.445,3.903,0.838,5.709,0.218
				c0.673-0.231,1.371-0.66,1.458-1.431c0.028-0.251-0.01-0.497-0.087-0.734c0.469,0.406,0.928,0.822,1.362,1.263
				c0.867,0.882,2.076,2.149,2.025,3.491c-0.063,1.64-2.11,1.713-3.33,1.639c-1.972-0.119-3.97-0.567-5.881-1.033
				C180.913,270.226,180.397,270.084,179.883,269.936z"/>
			<path style="fill:#00AEEF;" d="M169.608,275.664c0.003,0.004,0.005,0.008,0.007,0.013c-0.232-0.237-0.474-0.466-0.727-0.682
				c-0.836-0.715-1.75-1.333-2.665-1.94c-1.073-0.713-2.128-1.452-3.198-2.169c-1.825-1.223-3.661-2.436-5.416-3.756
				c2.737,1.089,5.43,2.286,8.136,3.447c2.854,1.224,5.731,2.4,8.691,3.343c1.076,0.342,2.184,0.6,3.295,0.794
				c1.336,0.233,2.875,0.481,4.202,0.079c0.276-0.084,0.542-0.214,0.766-0.392c0.009,0.032,0.021,0.062,0.029,0.094
				c0.248,0.968-0.007,1.918-0.753,2.597c-0.677,0.616-1.619,0.808-2.509,0.804c-0.946-0.004-1.881-0.203-2.797-0.424
				c-1.194-0.288-2.372-0.611-3.529-1.025c-1.464-0.524-2.884-1.152-4.295-1.801C169.127,274.965,169.389,275.3,169.608,275.664z"/>
			<path style="fill:#00AEEF;" d="M135.642,260.506c0.392-2.328,1.103-4.593,1.972-6.575c0.107-0.244,0.227-0.474,0.346-0.703
				c-0.427,2.473-0.558,5.001-0.233,7.483c0.473,3.616,1.989,7.06,4.727,9.53c3.24,2.923,7.464,4.749,11.607,5.964
				c1.916,0.561,3.864,0.988,5.831,1.322c1.327,0.226,2.639,0.53,3.967,0.749c1.504,0.248,3.054,0.459,4.58,0.341
				c0.542-0.042,1.117-0.132,1.642-0.324c-0.305,0.983-1.167,1.732-2.155,1.973c-0.745,0.182-1.526,0.179-2.287,0.143
				c-6.665-0.317-13.402-1.808-19.776-3.737c-3.341-1.011-7.161-2.357-9.032-5.528C134.976,268,135.055,263.992,135.642,260.506z"/>
			<g>
				<path style="fill:#00AEEF;" d="M153.544,251.342c-0.344,0.785-0.993,1.404-2.136,1.73c-2.307,0.658-5.466,0.645-7.747-0.068
					c-3.269-1.022-2.566-4.963-2.633-7.714c-0.354-14.383,0.05-91.482,0.738-105.845c0.187-3.899,0.39-7.798,0.647-11.694
					c0,0,12.218,0.803,12.218,0.804c-0.649,9.859-1.05,19.743-1.289,29.619c-0.131,5.395-0.199,10.793-0.146,16.19
					c0.025,2.529-0.007,67.777,0.174,70.3C153.522,246.774,154.439,249.3,153.544,251.342z"/>
				<path style="fill:#09556D;" d="M147.648,253.862c-1.438,0-2.873-0.19-4.079-0.567c-2.963-0.927-2.903-4.08-2.855-6.613
					c0.009-0.481,0.018-0.948,0.007-1.385c-0.308-12.52-0.074-88.927,0.738-105.868c0.154-3.211,0.367-7.443,0.647-11.699
					l0.02-0.305l12.829,0.844l-0.02,0.305c-0.609,9.249-1.03,18.934-1.288,29.606c-0.146,6.04-0.194,11.333-0.146,16.18
					c0.005,0.536,0.008,63.759,0.011,64.298c0.01,1.969,0.02,4.005,0.163,5.983c0.042,0.591,0.146,1.211,0.255,1.868
					c0.28,1.679,0.569,3.415-0.106,4.955l0,0c-0.411,0.937-1.196,1.578-2.332,1.901C150.33,253.697,148.988,253.862,147.648,253.862
					z M142.698,128.077c-0.27,4.147-0.476,8.25-0.627,11.383c-0.811,16.925-1.045,93.318-0.737,105.822
					c0.011,0.445,0.002,0.922-0.007,1.412c-0.049,2.57-0.1,5.228,2.426,6.017c2.191,0.686,5.305,0.713,7.572,0.067
					c0.965-0.276,1.6-0.786,1.939-1.559l0,0c0.603-1.373,0.328-3.018,0.063-4.608c-0.112-0.671-0.217-1.305-0.262-1.924
					c-0.144-1.999-0.154-4.046-0.164-6.025c-0.003-0.537-0.005-63.76-0.011-64.295c-0.048-4.854,0-10.153,0.146-16.2
					c0.256-10.564,0.671-20.161,1.27-29.327L142.698,128.077z"/>
			</g>
			<path style="fill:#9DD9E8;" d="M153.196,174.364c0.02,2.061,0.009,66.829,0.1,68.895c-0.246-0.964-0.499-1.927-0.73-2.895
				c-0.418-1.755-0.618-66.171-0.715-67.973c-0.271-5.071,0.128-10.133,0.324-15.199c0.196-5.086,0.324-10.174,0.539-15.259
				c0.19-4.488,0.458-8.975,0.893-13.446c0.633,0.042,1.023,0.067,1.023,0.067c-0.649,9.859-1.05,19.743-1.289,29.619
				C153.211,163.569,153.142,168.967,153.196,174.364z"/>
			<path style="fill:#00AEEF;" d="M141.028,245.29c-0.354-14.383,0.05-91.482,0.738-105.845c0.187-3.899,0.39-7.799,0.647-11.694
				c0,0,1.451,0.096,3.353,0.221c-0.4,3.625-0.755,7.255-1.044,10.891c-0.512,6.436-0.835,12.888-0.919,19.345
				c-0.042,3.233-0.025,6.466,0.057,9.698c0.076,2.989,0.255,68.654,0.391,71.64c0.08,1.766,0.138,3.531,0.393,5.283
				c0.255,1.75,0.687,3.62,1.764,5.064c1.101,1.477,3.033,2.331,4.868,1.893c1.068-0.255,1.95-0.91,2.611-1.759
				c-0.053,0.454-0.158,0.895-0.342,1.316c-0.344,0.785-0.993,1.404-2.136,1.73c-2.307,0.658-5.466,0.645-7.747-0.068
				C140.392,251.982,141.095,248.04,141.028,245.29z"/>
		</g>
		<g>
			<g>
				<g>
					<path style="fill:#00AEEF;" d="M204.609,113.234c-0.1-0.858-0.221-1.723-0.363-2.595c-0.739-4.536-1.8-9.014-2.391-13.575
						c-0.868-6.698-1.257-13.497-0.618-20.234c0.665-7.024,2.416-13.888,2.533-20.977c0.14-8.495-2.329-32.742-15.079-32.537
						c-1.231,0.02-2.231,0.743-2.931,1.711c-1.675,2.318-2.036,5.451-2.874,8.12c-0.317,1.009-0.681,2.337-1.534,3.046
						c-2.381,1.977-5.071-6.178-5.557-7.4c-1.56-3.914-2.782-9.126-8.028-9.123c-8.78,0.005-16.142,25.127-23.453,6.743
						c-1.114-2.802-1.506-5.844-1.581-8.858c-0.068-2.729-0.057-6.101-1.99-8.272c-2.706-3.04-6.781-1.736-9.579,0.43
						c-3.107,2.404-5.663,5.42-7.959,8.588c-2.118,2.923-3.8,6.564-6.55,8.959c-1.448,1.262-3.433,2.063-5.305,1.632
						c-2.838-0.653-4.36-3.745-4.974-6.341c-0.627-2.648,0.168-8.536-2.634-9.99c-3.231-1.677-7.341,2.92-9.33,4.932
						c-5.12,5.177-9.321,12.421-9.774,19.812c-0.136,2.214,0.264,5.225-1.851,6.744c-0.765,0.549-1.865,0.394-2.654-0.119
						c-1.855-1.204-2.788-3.656-4.106-5.345c-1.244-1.594-4.865-4.85-7.218-3.685c-0.299,0.148-0.511,0.428-0.684,0.714
						c-2.017,3.328,0.44,8.193,1.458,11.509c1.277,4.16,2.419,8.373,2.211,12.767c-0.375,7.905-3.225,15.51-6.506,22.625
						c-11.158,24.201-25.344,55.97,2.535,74.8c8.922,6.025,19.649,8.807,30.309,10.318c17.782,2.521,35.983,1.775,53.593-1.749
						c13.799-2.761,27.957-7.851,38.924-16.905C202.081,139.539,206.254,127.382,204.609,113.234z"/>
					<path style="fill:#09556D;" d="M119.52,169.437c-7.223,0-14.379-0.5-21.435-1.5c-13.028-1.847-22.7-5.141-30.438-10.368
						c-12.495-8.438-17.741-20.107-16.039-35.672c1.498-13.698,8.096-28.01,13.398-39.509c2.808-6.09,6.081-14.151,6.478-22.512
						c0.209-4.402-0.971-8.668-2.198-12.662c-0.186-0.604-0.42-1.262-0.668-1.958c-1.105-3.101-2.48-6.96-0.759-9.799
						c0.173-0.286,0.422-0.639,0.81-0.831c2.537-1.254,6.212,1.998,7.595,3.771c0.453,0.581,0.867,1.258,1.267,1.913
						c0.782,1.279,1.59,2.603,2.764,3.364c0.63,0.41,1.62,0.622,2.308,0.127c1.615-1.159,1.652-3.337,1.685-5.258
						c0.008-0.435,0.015-0.858,0.039-1.256c0.416-6.8,4.011-14.093,9.862-20.008l0.453-0.463c2.108-2.163,6.034-6.19,9.236-4.525
						c2.132,1.105,2.32,4.374,2.487,7.257c0.065,1.121,0.126,2.18,0.304,2.934c0.295,1.246,1.509,5.369,4.745,6.113
						c1.603,0.371,3.487-0.216,5.036-1.565c1.824-1.589,3.193-3.775,4.518-5.889c0.635-1.014,1.292-2.063,1.984-3.018
						c2.753-3.798,5.301-6.546,8.02-8.65c2.824-2.186,7.139-3.601,9.995-0.391c1.919,2.156,1.996,5.447,2.058,8.092l0.009,0.375
						c0.086,3.467,0.596,6.33,1.56,8.753c1.615,4.061,3.298,6.186,5.145,6.495c2.611,0.439,5.37-2.771,8.292-6.169
						c3.07-3.569,6.243-7.259,9.731-7.261c0.001,0,0.003,0,0.005,0c4.821,0,6.378,4.174,7.752,7.856
						c0.185,0.498,0.368,0.988,0.556,1.459c0.047,0.118,0.114,0.3,0.2,0.531c0.595,1.609,2.408,6.505,4.083,6.953
						c0.281,0.075,0.533,0.01,0.794-0.207c0.723-0.601,1.082-1.757,1.37-2.686l0.068-0.216c0.233-0.743,0.426-1.508,0.63-2.318
						c0.516-2.053,1.05-4.176,2.288-5.889c0.842-1.166,1.969-1.819,3.174-1.838c2.689-0.042,5.14,0.991,7.222,3.074
						c6.989,6.992,8.266,23.864,8.168,29.775c-0.071,4.278-0.743,8.535-1.393,12.652c-0.431,2.729-0.876,5.552-1.141,8.348
						c-0.567,5.986-0.365,12.582,0.618,20.165c0.349,2.696,0.873,5.413,1.38,8.04c0.348,1.807,0.708,3.675,1.009,5.524
						c0.144,0.881,0.267,1.758,0.365,2.608c1.718,14.772-3.017,26.891-14.074,36.018c-9.71,8.016-22.851,13.726-39.059,16.969
						C140.954,168.352,130.163,169.437,119.52,169.437z M69.908,34.961c-0.344,0-0.67,0.066-0.967,0.214
						c-0.246,0.122-0.428,0.384-0.558,0.599c-1.57,2.591-0.249,6.298,0.812,9.277c0.25,0.703,0.487,1.366,0.676,1.984
						c1.243,4.045,2.438,8.371,2.224,12.87c-0.402,8.466-3.702,16.6-6.533,22.739c-10.798,23.421-25.587,55.497,2.428,74.418
						c7.658,5.172,17.248,8.435,30.181,10.269c17.386,2.464,35.382,1.878,53.491-1.746c16.106-3.224,29.157-8.889,38.788-16.841
						c10.886-8.986,15.547-20.922,13.855-35.475l0,0c-0.097-0.841-0.219-1.709-0.361-2.581c-0.3-1.84-0.659-3.704-1.007-5.506
						c-0.508-2.636-1.034-5.363-1.386-8.078c-0.989-7.629-1.192-14.27-0.62-20.302c0.267-2.816,0.714-5.648,1.147-8.386
						c0.646-4.097,1.315-8.332,1.385-12.567c0.097-5.839-1.15-22.491-7.989-29.332c-1.96-1.962-4.225-2.911-6.779-2.894
						c-1.29,0.021-2.174,0.873-2.687,1.584c-1.17,1.618-1.689,3.683-2.191,5.68c-0.197,0.783-0.4,1.592-0.64,2.351l-0.067,0.215
						c-0.312,1.006-0.701,2.257-1.563,2.975c-0.409,0.34-0.873,0.454-1.343,0.328c-1.757-0.47-3.327-4.165-4.499-7.332
						c-0.083-0.225-0.149-0.402-0.195-0.517c-0.189-0.476-0.374-0.97-0.561-1.472c-1.367-3.667-2.782-7.458-7.178-7.458
						c-0.002,0-0.003,0-0.005,0c-3.206,0.002-6.287,3.583-9.267,7.048c-3.037,3.532-5.901,6.867-8.857,6.374
						c-2.076-0.347-3.912-2.595-5.613-6.872c-0.991-2.491-1.515-5.423-1.603-8.963l-0.009-0.377
						c-0.063-2.677-0.133-5.711-1.903-7.699c-2.576-2.89-6.422-1.654-9.164,0.469c-2.672,2.067-5.182,4.776-7.898,8.524
						c-0.681,0.939-1.332,1.979-1.962,2.984c-1.348,2.152-2.742,4.377-4.635,6.026c-1.695,1.477-3.775,2.114-5.575,1.7
						c-3.482-0.8-4.799-4.861-5.203-6.569c-0.191-0.806-0.254-1.891-0.32-3.04c-0.157-2.72-0.335-5.803-2.158-6.749
						c-2.798-1.449-6.517,2.36-8.515,4.41l-0.456,0.466c-5.748,5.812-9.279,12.961-9.686,19.615
						c-0.024,0.389-0.031,0.803-0.038,1.23c-0.036,2.065-0.076,4.406-1.94,5.745c-0.93,0.666-2.176,0.423-2.999-0.111
						c-1.29-0.837-2.136-2.22-2.953-3.558c-0.409-0.67-0.796-1.302-1.228-1.855C74.609,37.271,71.941,34.961,69.908,34.961z"/>
				</g>
				<path style="opacity:0.68;fill:#00AEEF;" d="M204.609,113.234c-0.1-0.858-0.221-1.723-0.363-2.595
					c-0.739-4.536-1.8-9.014-2.391-13.575c-0.868-6.698-1.257-13.497-0.618-20.234c0.665-7.024,2.416-13.888,2.533-20.977
					c0.14-8.495-2.329-32.742-15.079-32.537c-1.231,0.02-2.231,0.743-2.931,1.711c-1.675,2.318-2.036,5.451-2.874,8.12
					c-0.317,1.009-0.681,2.337-1.534,3.046c-2.381,1.977-5.071-6.178-5.557-7.4c-1.56-3.914-2.782-9.126-8.028-9.123
					c-8.781,0.005-16.142,25.127-23.453,6.743c-1.114-2.802-1.506-5.844-1.581-8.858c-0.068-2.729-0.057-6.101-1.99-8.272
					c-2.706-3.04-6.781-1.736-9.579,0.43c-3.107,2.404-5.663,5.42-7.959,8.588c-2.118,2.923-3.8,6.564-6.55,8.959
					c-1.448,1.262-3.433,2.063-5.305,1.632c-2.838-0.653-4.36-3.745-4.974-6.341c-0.627-2.648,0.168-8.536-2.634-9.99
					c-3.231-1.677-7.341,2.92-9.33,4.932c-5.12,5.177-9.322,12.421-9.775,19.812c-0.136,2.214,0.264,5.225-1.851,6.744
					c-0.765,0.549-1.865,0.394-2.654-0.119c-1.855-1.204-2.788-3.656-4.106-5.345c-1.244-1.594-4.865-4.85-7.218-3.685
					c-0.299,0.148-0.511,0.428-0.684,0.714c-2.017,3.328,0.44,8.193,1.458,11.509c1.277,4.16,2.419,8.373,2.21,12.767
					c-0.375,7.905-3.226,15.51-6.506,22.625c-11.158,24.201-25.344,55.97,2.535,74.8c8.922,6.026,19.649,8.807,30.309,10.318
					c17.782,2.521,35.983,1.775,53.593-1.749c13.799-2.761,27.957-7.851,38.924-16.905
					C202.081,139.539,206.254,127.382,204.609,113.234z M175.434,118.196c-1.372,7.273-4.434,14.119-9.404,19.643
					c-4.365,4.851-9.923,8.497-15.877,11.1c-6.312,2.76-13.064,4.424-19.878,5.347c-6.811,0.923-13.716,1.123-20.575,0.724
					c-6.556-0.382-13.163-1.227-19.497-2.997c-6.797-1.9-13.446-4.782-19.168-8.95c-5.357-3.902-9.95-9.092-11.989-15.496
					c-2.33-7.321-0.704-14.908,2.071-21.862c3.088-7.739,7.54-14.825,11.037-22.372c2.573-5.555,4.509-11.42,4.869-17.463
					c-0.183-2.461-0.528-4.912-1.025-7.345c-0.357-1.746-0.947-3.435-1.258-5.189c-0.258-1.457-0.463-3.273,0.424-4.569
					c0.921-1.347,2.642-1.162,3.97-0.612c1.491,0.618,2.987,1.876,4.653,1.928c1.664,0.052,2.677-1.698,3.156-3.063
					c0.547-1.561,0.747-3.219,0.989-4.847c0.451-3.039,1.541-6.205,3.238-8.778c0.854-1.295,1.965-2.496,3.431-3.083
					c1.447-0.58,3.037-0.424,4.373,0.369c2.691,1.596,3.612,4.929,6.103,6.729c2.226,1.609,5.217,1.387,7.564,0.209
					c2.446-1.228,4.459-3.174,6.491-4.97c1.856-1.641,3.823-3.409,6.206-4.231c2.451-0.845,4.894-0.139,6.863,1.467
					c3.006,2.45,3.913,6.488,5.956,9.63c1.252,1.926,2.948,3.403,5.274,3.813c2.3,0.405,4.518-0.55,6.4-1.793
					c1.837-1.214,3.483-2.687,5.059-4.216c1.448-1.404,2.915-2.828,4.621-3.921c1.493-0.957,3.236-1.637,5.035-1.405
					c1.801,0.232,3.444,1.341,4.623,2.687c2.247,2.565,2.989,6.131,3.33,9.428c0.367,3.544,0.213,7.105,0.168,10.66
					c-0.066,5.144-0.445,10.272-0.376,15.422c0.071,5.357,0.485,10.711,1.444,15.986C175.654,96.734,177.451,107.5,175.434,118.196z
					"/>
				<path style="opacity:0.68;fill:#00AEEF;" d="M68.99,36.506c1.316,0.919,2.206,2.398,3.05,3.73
					c0.866,1.367,1.714,2.763,2.941,3.841c1.009,0.886,2.311,1.691,3.613,2.061c0.735,0.209,1.539,0.247,2.198-0.195
					c0.545-0.365,0.89-0.973,1.137-1.573c-0.611,0.079-1.274-0.098-1.8-0.439c-1.855-1.204-2.788-3.656-4.106-5.345
					c-1.244-1.594-4.865-4.85-7.218-3.685c-0.299,0.148-0.511,0.428-0.684,0.714c-0.077,0.126-0.135,0.259-0.199,0.39
					C68.296,36.106,68.66,36.276,68.99,36.506z"/>
				<path style="opacity:0.68;fill:#00AEEF;" d="M135.712,9.223c1.872,1.386,2.486,3.783,2.765,5.978
					c0.331,2.598,0.237,5.228,0.386,7.838c0.069,1.207,0.179,2.422,0.475,3.597c0.278,1.105,0.627,2.202,1.045,3.261
					c0.819,2.077,2.029,4.254,4.016,5.413c1.918,1.118,4.351,0.93,6.308,0.003c1.963-0.93,3.548-2.507,4.915-4.164
					c1.493-1.809,2.761-3.79,4.018-5.766c0.104-0.164,0.208-0.329,0.312-0.493c-5.536,6.196-10.6,14.197-15.64,1.524
					c-1.114-2.802-1.506-5.844-1.581-8.858c-0.068-2.729-0.057-6.101-1.99-8.272c-2.057-2.31-4.903-2.109-7.38-0.93
					C134.193,8.433,134.997,8.694,135.712,9.223z"/>
				<path style="opacity:0.68;fill:#00AEEF;" d="M169.127,20.92c1.661,2,2.269,4.747,2.823,7.223
					c0.58,2.595,0.995,5.277,2.129,7.703c0.678,1.45,1.471,3.133,2.811,4.089c0.605,0.432,1.314,0.629,2.041,0.414
					c0.669-0.198,1.242-0.599,1.631-1.179c0.463-0.688,0.74-1.493,0.917-2.325c-0.269-0.061-0.513-0.187-0.728-0.365
					c-2.214,0.376-4.512-6.567-4.958-7.687c-1.56-3.914-2.782-9.126-8.028-9.123c-0.035,0-0.07,0.007-0.105,0.008
					C168.217,19.999,168.713,20.422,169.127,20.92z"/>
				<path style="opacity:0.68;fill:#00AEEF;" d="M101.702,15.191c0.535,2.315,0.433,4.768,0.473,7.128
					c0.019,1.15,0.038,2.308,0.182,3.451c0.054,0.432,0.13,0.865,0.257,1.283c0.177,0.582,0.518,1.141,0.812,1.671
					c1.301,2.339,3.316,4.891,6.262,4.833c2.497-0.049,4.65-1.84,6.159-3.677c1.423-1.731,2.507-3.72,3.517-5.72
					c-0.807,1.139-1.684,2.207-2.71,3.101c-1.448,1.262-3.433,2.063-5.305,1.632c-2.838-0.653-4.36-3.745-4.974-6.341
					c-0.627-2.648,0.168-8.536-2.634-9.99c-1.099-0.571-2.301-0.414-3.486,0.12C101.032,13.218,101.479,14.223,101.702,15.191z"/>
				<path style="opacity:0.44;fill:#00AEEF;" d="M204.609,113.234c-0.1-0.858-0.221-1.723-0.363-2.595
					c-0.739-4.536-1.8-9.014-2.391-13.575c-0.868-6.698-1.257-13.497-0.618-20.234c0.665-7.024,2.416-13.888,2.533-20.977
					c0.14-8.495-2.329-32.742-15.079-32.537c-1.181,0.019-2.148,0.689-2.842,1.598c0.531-0.111,1.069-0.158,1.597-0.125
					c2.605,0.163,4.197,2.432,5.074,4.665c1.1,2.799,1.589,5.892,1.619,8.887c0.01,0.965-0.029,1.924-0.099,2.879
					c0.172,3.312-0.032,6.64-0.243,9.945c-0.434,6.804-1.808,13.51-2.701,20.26c-0.452,3.418-0.788,6.856-0.842,10.305
					c-0.055,3.535,0.193,7.073,0.47,10.595c0.552,7.023,1.336,14.082,0.786,21.131c-0.443,5.677-1.893,11.197-4.38,16.323
					c-2.296,4.731-5.434,9.046-9.206,12.709c-3.837,3.725-8.275,6.626-13.049,9.003c-9.835,4.898-20.59,7.911-31.442,9.482
					c-11.211,1.623-22.689,1.731-33.896,0.015c-10.38-1.589-20.962-4.737-29.742-10.651c-4.198-2.828-7.966-6.318-10.891-10.462
					c-3.035-4.302-5.043-9.248-5.875-14.446c-0.444-2.776-0.549-5.548-0.392-8.306c-2.847,15.053-0.425,29.649,15.182,40.19
					c8.922,6.026,19.649,8.807,30.309,10.318c17.782,2.521,35.983,1.775,53.593-1.749c13.799-2.761,27.957-7.851,38.924-16.905
					C202.081,139.539,206.254,127.382,204.609,113.234z"/>
			</g>
			<g>
				<path style="fill:#FFFFFF;" d="M94.453,33.648c-0.187-0.201-0.397-0.308-0.618-0.351c-0.02-0.138-0.101-0.261-0.253-0.305
					c-0.547-0.156-1.229,0.089-1.66,0.429c-0.543,0.427-0.977,0.967-1.305,1.574c-0.601,1.114-1.101,2.479-1.038,3.764
					c0.027,0.557,0.112,1.132,0.513,1.553c0.587,0.617,1.347,0.708,2.132,0.411c1.276-0.483,2.053-1.893,2.445-3.121
					c0.21-0.657,0.361-1.37,0.35-2.063C95.007,34.898,94.909,34.14,94.453,33.648z"/>
				<path style="fill:#FFFFFF;" d="M93.467,35.661c0.002,0,0.004,0,0.006,0c-0.006,0.003-0.011,0.006-0.018,0.009
					c-0.004,0.004-0.009,0.008-0.013,0.013c0.012-0.008,0.026-0.018,0.036-0.025c0.024-0.018,0.046-0.035,0.075-0.059
					C93.527,35.62,93.496,35.64,93.467,35.661z"/>
			</g>
			<path style="fill:#FFFFFF;" d="M91.156,42.905c-0.556,0-1.156,0.392-1.329,0.932c-0.159,0.496,0.138,0.968,0.679,0.968
				c0.556,0,1.156-0.392,1.329-0.932C91.994,43.377,91.697,42.905,91.156,42.905z"/>
			<path style="fill:#FFFFFF;" d="M127.759,32.084c0.036-0.124,0.051-0.275-0.036-0.384c-0.092-0.115-0.206-0.146-0.348-0.165
				c-0.213-0.029-0.426-0.017-0.636,0.013c-0.356-0.009-0.731,0.125-1.004,0.329c-0.264,0.198-0.497,0.408-0.667,0.694
				c-0.029,0.049-0.058,0.104-0.085,0.162c-0.12,0.165-0.233,0.334-0.334,0.51c-0.162,0.28-0.3,0.578-0.413,0.881
				c-0.136,0.366,0.027,0.808,0.425,0.912c0.293,0.077,0.638,0.11,0.936,0.034c0.161-0.041,0.331-0.091,0.481-0.167
				c0.152-0.078,0.31-0.159,0.443-0.269c0.27-0.221,0.52-0.462,0.687-0.774c0.015-0.028,0.029-0.058,0.043-0.086
				c0.005-0.004,0.01-0.008,0.015-0.013c0.135-0.13,0.236-0.28,0.304-0.451c0.118-0.247,0.169-0.494,0.114-0.77
				c-0.009-0.042-0.026-0.074-0.041-0.11c0.001-0.041-0.009-0.078-0.013-0.117C127.688,32.242,127.736,32.166,127.759,32.084z"/>
			<path style="fill:#FFFFFF;" d="M132.796,16.507c-0.132-0.273-0.572-0.383-0.834-0.395c-0.572-0.026-1.117,0.096-1.628,0.308
				c-0.148,0.042-0.291,0.093-0.42,0.157c-0.64,0.317-1.198,0.762-1.678,1.288c-0.491,0.539-0.921,1.144-1.279,1.779
				c-0.345,0.613-0.636,1.279-0.712,1.985c-0.064,0.587,0.117,1.212,0.519,1.651c0.515,0.561,1.22,0.733,1.96,0.57
				c1.452-0.319,2.612-1.567,3.364-2.784c0.432-0.7,0.769-1.462,0.936-2.269c0.07-0.336,0.123-0.668,0.103-1.012
				C133.097,17.298,133.008,16.947,132.796,16.507z"/>
			<path style="fill:#FFFFFF;" d="M162.386,36.778c-0.039-0.086-0.079-0.171-0.118-0.257c-0.105-0.143-0.244-0.237-0.409-0.294
				c-0.063-0.094-0.141-0.178-0.24-0.247l-0.3-0.139c-0.242-0.064-0.485-0.068-0.73-0.013c-0.025,0.003-0.05,0.008-0.075,0.014
				c-0.099,0.024-0.31,0.095-0.406,0.131c-0.009,0.004-0.019,0.007-0.028,0.011c-0.011,0.005-0.021,0.01-0.032,0.016
				c-0.109,0.056-0.272,0.144-0.379,0.214c-0.024,0.008-0.049,0.015-0.073,0.024c-0.269,0.12-0.506,0.286-0.71,0.498
				c-0.186,0.192-0.324,0.413-0.414,0.663c-0.079,0.219-0.094,0.443-0.043,0.67c0.05,0.188,0.156,0.337,0.302,0.458
				c0.004,0.035,0.003,0.071,0.007,0.104c0.014,0.121,0.046,0.238,0.084,0.354l0.1,0.219c0.071,0.108,0.165,0.181,0.283,0.221
				c0.074,0.047,0.154,0.071,0.242,0.071c0.137,0.03,0.274,0.028,0.413-0.009c0.071-0.013,0.141-0.029,0.21-0.049
				c0.17-0.05,0.333-0.099,0.487-0.184c0.16-0.088,0.325-0.174,0.476-0.279c0.154-0.108,0.297-0.24,0.437-0.362
				c0.152-0.132,0.273-0.284,0.397-0.443c0.125-0.161,0.243-0.318,0.337-0.5c0.096-0.138,0.154-0.289,0.175-0.452
				C162.424,37.073,162.427,36.927,162.386,36.778z"/>
			<path style="fill:#FFFFFF;" d="M165.094,26.903c-0.027-0.13-0.091-0.235-0.192-0.313c-0.082-0.1-0.188-0.165-0.319-0.194
				c-0.015-0.004-0.03-0.008-0.045-0.011c-0.008-0.002-0.016-0.004-0.024-0.006c-0.053-0.013-0.096-0.016-0.158-0.025
				c-0.145-0.032-0.29-0.029-0.436,0.01c-0.003,0.001-0.005,0.001-0.008,0.002c-0.004,0.001-0.008,0.002-0.012,0.003
				c-0.009,0.002-0.017,0.004-0.026,0.006c-0.018,0.004-0.036,0.008-0.055,0.012l-0.3,0.097c-0.159,0.065-0.3,0.157-0.422,0.275
				c-0.091,0.063-0.166,0.141-0.225,0.234c-0.102,0.113-0.176,0.242-0.224,0.389c-0.018,0.089-0.037,0.177-0.055,0.266
				c0.007,0.084,0.015,0.169,0.022,0.253c0.027,0.13,0.091,0.235,0.192,0.313c0.082,0.1,0.188,0.165,0.319,0.194
				c0.015,0.004,0.03,0.008,0.044,0.012c0.008,0.002,0.016,0.004,0.024,0.007c0.004,0.001,0.007,0.002,0.01,0.003
				c0.002,0.001,0.004,0.001,0.007,0.002c0.14,0.043,0.282,0.051,0.424,0.025c0.069-0.007,0.115-0.007,0.173-0.02
				c0.009-0.002,0.017-0.004,0.026-0.006c0.018-0.004,0.036-0.008,0.055-0.012c0.1-0.032,0.2-0.065,0.3-0.097
				c0.159-0.065,0.3-0.157,0.422-0.275c0.091-0.063,0.166-0.141,0.225-0.234c0.102-0.113,0.176-0.242,0.224-0.389
				c0.018-0.089,0.036-0.177,0.055-0.266C165.109,27.071,165.102,26.987,165.094,26.903z"/>
			<path style="fill:#FFFFFF;" d="M188.777,33.136c-1.66-0.335-3.146,0.953-3.919,2.304c-0.658,1.15-1.129,2.57-0.88,3.905
				c0.091,0.49,0.37,0.977,0.779,1.28c0.007,0.019,0.012,0.038,0.019,0.057c0.037,0.095,0.074,0.153,0.107,0.232
				c-0.052-0.126-0.224-0.34,0.02,0.04c0.015,0.024,0.036,0.044,0.053,0.067c0.156,0.201,0.386,0.347,0.63,0.414
				c0.592,0.164,1.225-0.01,1.777-0.229c0.666-0.264,1.339-0.692,1.831-1.215c0.932-0.992,1.546-2.418,1.599-3.78
				C190.844,34.868,190.225,33.428,188.777,33.136z"/>
			<path style="fill:#FFFFFF;" d="M186.908,45.113c-0.696,0-1.428,0.488-1.651,1.157c-0.205,0.615,0.176,1.202,0.842,1.202
				c0.696,0,1.428-0.488,1.651-1.157C187.956,45.7,187.574,45.113,186.908,45.113z"/>
			<path style="fill:#FFFFFF;" d="M79.149,53.074c-0.112-0.088-0.228-0.17-0.348-0.244v0c-0.012-0.075-0.038-0.145-0.068-0.215
				c-0.031-0.072-0.065-0.141-0.099-0.212c-0.013-0.031-0.023-0.062-0.033-0.095c-0.037-0.13-0.109-0.245-0.175-0.361
				c-0.085-0.129-0.199-0.218-0.341-0.266c-0.136-0.079-0.286-0.115-0.448-0.108c-0.113,0.011-0.227,0.022-0.34,0.034
				c-0.189,0.036-0.363,0.106-0.521,0.21c-0.122,0.054-0.229,0.129-0.321,0.225c-0.153,0.113-0.278,0.253-0.375,0.419
				c-0.151,0.266-0.286,0.605-0.187,0.914c0.007,0.022,0.015,0.044,0.024,0.066c0.031,0.078,0.085,0.221,0.134,0.289
				c0.042,0.057,0.164,0.168,0.218,0.213c0.035,0.03,0.072,0.059,0.107,0.089c0.023,0.019,0.045,0.039,0.068,0.057
				c0.007,0.009,0.014,0.019,0.021,0.029c0.002,0.007,0.004,0.014,0.005,0.021c0,0.005,0,0.009,0,0.013
				c0.007,0.081,0.014,0.162,0.021,0.243c0.026,0.125,0.088,0.226,0.185,0.301c0.05,0.068,0.115,0.113,0.196,0.135
				c0.113,0.065,0.235,0.095,0.369,0.089c0.196-0.003,0.388-0.049,0.569-0.121c0.153-0.062,0.289-0.151,0.406-0.265
				c0.118-0.088,0.213-0.199,0.292-0.325c0.031-0.002,0.062,0.003,0.094-0.004c0.178-0.036,0.381-0.149,0.502-0.285
				C79.32,53.678,79.445,53.306,79.149,53.074z"/>
			<path style="fill:#FFFFFF;" d="M64.866,129.317c-0.071-0.211-0.185-0.386-0.314-0.551c0.082-0.515-0.028-1.062-0.189-1.546
				c-0.257-0.773-0.611-1.582-1.069-2.259c-0.244-0.36-0.556-0.683-0.987-0.797c-0.956-0.253-1.846,0.53-2.177,1.361
				c-0.317,0.795-0.224,1.58,0.09,2.306c0.019,0.058,0.036,0.117,0.058,0.174c0.021,0.055,0.045,0.109,0.068,0.163
				c0.03,0.068,0.132,0.293,0.042,0.096c0.032,0.07,0.062,0.139,0.094,0.208c0.315,0.676,0.873,1.405,1.594,1.708
				c0.179,0.153,0.354,0.272,0.595,0.376c0.267,0.114,0.517,0.189,0.813,0.188c0.398-0.001,0.783-0.185,1.055-0.473
				C64.757,130.041,64.977,129.649,64.866,129.317z"/>
			<path style="fill:#FFFFFF;" d="M67.144,134.033c-0.926,0-1.793,1.646-0.564,1.646C67.506,135.68,68.372,134.033,67.144,134.033z"
				/>
		</g>
	</g>
	<g>
		<g>
			<g>
				<circle style="fill:#FFFFFF;" cx="105.282" cy="71.725" r="17.977"/>
				<path style="fill:#AFC4C4;" d="M105.282,90.008c-10.081,0-18.283-8.202-18.283-18.283s8.202-18.283,18.283-18.283
					s18.282,8.201,18.282,18.283S115.363,90.008,105.282,90.008z M105.282,54.054c-9.744,0-17.671,7.927-17.671,17.67
					c0,9.744,7.927,17.671,17.671,17.671c9.743,0,17.67-7.927,17.67-17.671C122.953,61.981,115.026,54.054,105.282,54.054z"/>
			</g>
			<path style="opacity:0.63;fill:#E0E1E2;" d="M105.282,53.748c-9.928,0-17.977,8.049-17.977,17.977s8.048,17.977,17.977,17.977
				s17.977-8.048,17.977-17.977S115.21,53.748,105.282,53.748z M105.282,85.301c-8.312,0-15.051-6.738-15.051-15.051
				s6.738-15.051,15.051-15.051c8.312,0,15.051,6.738,15.051,15.051S113.594,85.301,105.282,85.301z"/>
			<g>
				<path style="fill:#4068B2;" d="M117.216,71.572c0,6.591-5.343,11.934-11.934,11.934c-6.591,0-11.934-5.343-11.934-11.934
					c0-6.591,5.343-11.934,11.934-11.934C111.873,59.639,117.216,64.981,117.216,71.572z"/>
				<circle style="fill:#FFFFFF;" cx="100" cy="69.558" r="3.174"/>
			</g>
			<g>
				<path style="fill:#8390A3;" d="M117.332,80.989c-4.697,2.999-10.512,3.922-15.972,3.065c-4.927-0.773-9.647-3.055-13.117-6.648
					c2.38,7.14,9.1,12.296,17.04,12.296c8.324,0,15.324-5.659,17.37-13.339c-0.107,0.003-0.214,0.008-0.321,0.011
					C120.949,78.186,119.263,79.755,117.332,80.989z"/>
				<path style="fill:#637173;" d="M105.282,90.008c-7.873,0-14.837-5.025-17.331-12.505l-0.426-1.28l0.937,0.97
					c3.323,3.441,7.921,5.771,12.945,6.559c5.63,0.883,11.372-0.218,15.76-3.021l0,0c1.884-1.202,3.539-2.73,4.92-4.542l0.089-0.117
					l0.878-0.026l-0.105,0.396C120.82,84.429,113.555,90.008,105.282,90.008z M89.009,78.575c2.739,6.524,9.118,10.82,16.274,10.82
					c7.691,0,14.48-4.988,16.817-12.237c-1.324,1.608-2.87,2.981-4.602,4.088l0,0c-4.579,2.924-10.33,4.028-16.184,3.11
					C96.637,83.622,92.32,81.586,89.009,78.575z"/>
			</g>
			<g>
				<path style="fill:#8390A3;" d="M108.793,64.241c4.707,1.605,9.442,3.133,14.218,4.519c-1.414-8.517-8.811-15.013-17.729-15.013
					c-4.787,0-9.134,1.875-12.356,4.926C98.212,60.539,103.488,62.432,108.793,64.241z"/>
				<path style="fill:#637173;" d="M123.393,69.19l-0.467-0.135c-4.371-1.269-9.027-2.749-14.231-4.523
					c-3.96-1.351-7.968-2.771-11.845-4.144l-4.497-1.591l0.363-0.344c3.411-3.23,7.874-5.009,12.566-5.009
					c8.98,0,16.563,6.421,18.031,15.268L123.393,69.19z M108.892,63.951c5.009,1.708,9.506,3.142,13.731,4.377
					c-1.61-8.3-8.826-14.274-17.34-14.274c-4.367,0-8.528,1.595-11.775,4.501l3.547,1.255
					C100.929,61.182,104.936,62.602,108.892,63.951z"/>
			</g>
		</g>
	</g>
	<g>
		<g>
			<g>
				<circle style="fill:#FFFFFF;" cx="150.512" cy="71.725" r="17.977"/>
				<path style="fill:#AFC4C4;" d="M150.512,90.008c-10.081,0-18.283-8.202-18.283-18.283s8.202-18.283,18.283-18.283
					c10.081,0,18.282,8.201,18.282,18.283S160.593,90.008,150.512,90.008z M150.512,54.054c-9.744,0-17.671,7.927-17.671,17.67
					c0,9.744,7.927,17.671,17.671,17.671c9.743,0,17.67-7.927,17.67-17.671C168.182,61.981,160.255,54.054,150.512,54.054z"/>
			</g>
			<path style="opacity:0.63;fill:#E0E1E2;" d="M132.535,71.725c0,9.928,8.049,17.977,17.977,17.977
				c9.928,0,17.977-8.048,17.977-17.977s-8.049-17.977-17.977-17.977C140.584,53.748,132.535,61.796,132.535,71.725z M135.461,70.25
				c0-8.312,6.739-15.051,15.051-15.051c8.312,0,15.051,6.738,15.051,15.051s-6.738,15.051-15.051,15.051
				C142.2,85.301,135.461,78.562,135.461,70.25z"/>
			<g>
				<path style="fill:#4068B2;" d="M138.578,71.572c0,6.591,5.343,11.934,11.934,11.934c6.591,0,11.934-5.343,11.934-11.934
					c0-6.591-5.343-11.934-11.934-11.934C143.921,59.639,138.578,64.981,138.578,71.572z"/>
				<circle style="fill:#FFFFFF;" cx="143.63" cy="70.753" r="3.174"/>
			</g>
			<g>
				<path style="fill:#8390A3;" d="M138.462,80.989c4.697,2.999,10.511,3.922,15.972,3.065c4.927-0.773,9.647-3.055,13.117-6.648
					c-2.38,7.14-9.1,12.296-17.04,12.296c-8.324,0-15.324-5.659-17.37-13.339c0.107,0.003,0.214,0.008,0.322,0.011
					C134.845,78.186,136.531,79.755,138.462,80.989z"/>
				<path style="fill:#637173;" d="M150.512,90.008c-8.274,0-15.538-5.579-17.666-13.566l-0.105-0.396l0.878,0.026l0.088,0.117
					c1.381,1.812,3.037,3.34,4.92,4.542l0,0c4.388,2.803,10.131,3.903,15.76,3.021c5.024-0.788,9.622-3.117,12.945-6.559l0.937-0.97
					l-0.426,1.28C165.349,84.982,158.385,90.008,150.512,90.008z M133.695,77.159c2.337,7.249,9.126,12.237,16.817,12.237
					c7.156,0,13.535-4.296,16.273-10.82c-3.31,3.01-7.628,5.047-12.304,5.781c-5.855,0.918-11.605-0.186-16.184-3.11
					C136.565,80.14,135.019,78.767,133.695,77.159z"/>
			</g>
			<g>
				<path style="fill:#8390A3;" d="M147.001,64.241c-4.707,1.605-9.442,3.133-14.219,4.519c1.414-8.517,8.811-15.013,17.729-15.013
					c4.787,0,9.134,1.875,12.356,4.926C157.582,60.539,152.306,62.432,147.001,64.241z"/>
				<path style="fill:#637173;" d="M132.401,69.19l0.079-0.479c1.469-8.847,9.052-15.268,18.032-15.268
					c4.692,0,9.155,1.779,12.566,5.009l0.363,0.344l-4.497,1.591c-3.877,1.373-7.885,2.794-11.845,4.144
					c-5.201,1.773-9.856,3.253-14.231,4.523L132.401,69.19z M150.512,54.054c-8.515,0-15.73,5.974-17.341,14.274
					c4.229-1.236,8.727-2.67,13.731-4.377l0,0c3.956-1.349,7.963-2.769,11.838-4.141l3.547-1.255
					C159.04,55.649,154.879,54.054,150.512,54.054z"/>
			</g>
		</g>
	</g>
	<g>
		<path style="fill:#9C272F;" d="M183.206,103.277c-0.49-4.029-2.679-8.059-6.031-10.404c-7.259-5.08-16.774-1.18-23.714,2.43
			c-4.586,2.385-9.123,4.973-13.973,6.796c-4.551,1.71-9.392,2.56-14.243,2.738c-5.167,0.189-10.405-0.395-15.455-1.476
			c-2.658-0.569-5.283-1.308-7.85-2.204c-2.556-0.892-4.908-2.212-7.312-3.437c-3.635-1.852-7.705-3.475-11.857-2.625
			c-3.058,0.626-5.485,3.022-5.63,6.035c-0.729,3.727,0.753,7.468,2.482,10.781c2.073,3.971,4.575,7.68,7.789,10.82
			c6.701,6.547,15.654,10.716,24.581,13.244c9.166,2.595,18.889,3.624,28.393,2.889c8.462-0.655,16.737-3.271,23.931-7.796
			c6.635-4.175,12.956-9.958,16.605-16.988C182.649,110.757,183.663,107.032,183.206,103.277z"/>
		<path style="fill:#F69788;" d="M167.967,127.173c-6.426,5.027-14.027,8.439-22.064,9.862c-8.715,1.542-17.905,1.047-26.565-0.607
			c-9.026-1.724-17.918-4.993-25.493-10.261c-3.543-2.464-6.671-5.442-9.206-8.939c-1.454-2.006-2.799-4.203-3.923-6.489
			c-0.877-1.468-1.613-3.018-2.138-4.657c-0.596-1.863-1.016-4.601-0.128-6.559c-0.014-0.01-0.019-0.027-0.035-0.035
			c0.409-1.031,1.098-1.948,2.039-2.58c3.129-2.102,7.479-1.024,10.67,0.33c2.333,0.99,4.523,2.278,6.802,3.38
			c2.306,1.115,4.731,1.921,7.194,2.615c4.775,1.345,9.697,2.156,14.647,2.463c4.547,0.283,9.124,0.017,13.584-0.923
			c4.56-0.961,8.789-2.748,12.925-4.86c4.283-2.187,8.425-4.762,12.887-6.579c3.695-1.504,7.838-2.555,11.844-1.969
			c4.351,0.636,7.764,3.448,9.63,7.383c1.6,3.373,1.828,7.136,0.839,10.721C179.484,116.694,173.723,122.67,167.967,127.173z"/>
		<path style="opacity:0.53;fill:#F47D6B;" d="M181.478,109.469c0.99-3.585,0.762-7.348-0.839-10.721
			c-0.366-0.771-0.807-1.483-1.287-2.16c0.43,1.811,0.813,3.631,0.86,5.504c0.076,3.076-0.78,6.23-2.056,9.008
			c-2.326,5.064-6.117,9.393-10.65,12.602c-8.184,5.794-18.324,8.085-28.197,8.653c-5.014,0.288-10.053,0.124-15.047-0.395
			c-5.807-0.604-11.582-1.665-17.11-3.577c-6.109-2.114-11.843-5.238-16.907-9.26c-1.853-1.472-3.74-3.006-5.271-4.821
			c-1.167-1.383-2.196-2.892-3.115-4.45c-1.804-3.06-3.591-6.818-3.393-10.473c-0.016,0.037-0.037,0.072-0.052,0.109
			c0.016,0.008,0.021,0.025,0.035,0.035c-0.888,1.957-0.468,4.695,0.128,6.559c0.525,1.639,1.261,3.189,2.138,4.657
			c1.123,2.287,2.468,4.483,3.923,6.489c2.535,3.498,5.663,6.475,9.206,8.939c7.575,5.267,16.467,8.537,25.493,10.261
			c8.66,1.654,17.85,2.15,26.565,0.607c8.036-1.422,15.638-4.835,22.064-9.862C173.723,122.67,179.484,116.694,181.478,109.469z"/>
		<path style="fill:#D65E4A;" d="M165.235,116.723c-4.642-3.65-4.513-10.218-1.371-14.692c-1.864,1.41-3.03,3.85-3.484,6.044
			c-0.34,1.641-0.16,3.271,0.433,4.742c-3.201,2.602-6.393,5.155-10.193,6.925c-4.96,2.31-10.468,3.261-15.897,3.56
			c-11.548,0.635-23.422-1.142-33.818-6.374c-3.894-1.96-7.613-4.415-9.977-8.041c-0.461-0.422-0.912-0.857-1.354-1.304
			c0.695,1.732,1.536,3.359,2.806,4.782c1.54,1.726,3.436,3.083,5.431,4.234c5.264,3.036,11.034,5.131,16.967,6.403
			c5.745,1.232,11.655,1.624,17.522,1.504c5.702-0.116,11.476-0.886,16.819-2.954c4.501-1.742,8.585-4.495,12.18-7.733
			c0.596,1.063,1.415,2.015,2.416,2.785c1.51,1.162,3.343,1.931,5.242,2.097c0.131,0.011,0.284-0.038,0.424-0.117
			C167.884,118.263,166.45,117.678,165.235,116.723z"/>
		<path style="opacity:0.53;fill:#F47D6B;" d="M167.563,117.132c-3.157-2.013-4.884-5.605-4.991-9.29
			c-0.083-2.851,0.829-5.605,2.422-7.916c-2.298,1.422-4.317,3.305-5.395,5.81c-0.692,1.608,0.009,3.219-0.268,4.877
			c-0.186,1.111-0.983,1.807-1.873,2.41c-2.031,1.375-4.382,2.296-6.652,3.192c-2.864,1.13-5.67,2.312-8.648,3.127
			c-6.611,1.81-13.61,2.569-20.451,2.077c-12.393-0.891-25.463-5.783-33.123-15.993c0.018,4.68,4.115,8.396,7.757,10.821
			c4.722,3.143,10.31,5.014,15.758,6.443c5.986,1.569,12.205,2.161,18.383,2.226c10.991,0.116,22.494-1.962,31.288-8.973
			c0.301-0.24,0.838-0.22,1.008,0.187c1.483,3.561,5.753,3.752,9.105,2.592C170.358,118.479,168.882,117.973,167.563,117.132z"/>
		<path style="opacity:0.56;fill:#FFFFFF;" d="M124.904,107.626c-0.925-0.284-2.232,0.212-3.18,0.316
			c-1.225,0.134-2.458,0.163-3.689,0.122c-2.299-0.077-4.593-0.359-6.86-0.744c-2.826-0.48-5.554-1.352-8.292-2.18
			c-1.168-0.353-2.334-0.695-3.489-1.087c-1.26-0.428-2.712-0.859-3.796-1.634c-0.052-0.037-0.19,0.024-0.136,0.093
			c0.819,1.04,1.586,1.792,2.772,2.411c1.108,0.579,2.317,0.975,3.504,1.358c2.884,0.931,5.75,1.861,8.743,2.382
			c2.483,0.432,5.003,0.741,7.525,0.79c1.253,0.024,2.51-0.004,3.756-0.147c1.046-0.12,2.603-0.217,3.334-1.065
			C125.281,108.027,125.168,107.707,124.904,107.626z"/>
		<path style="opacity:0.56;fill:#FFFFFF;" d="M130.347,107.094c-0.077-0.146-0.225-0.212-0.385-0.23
			c-0.167-0.019-0.32,0.02-0.48,0.054c0.06-0.012,0.12-0.024,0.18-0.037c-0.092,0.019-0.197,0.028-0.284,0.057
			c-0.092,0.03-0.181,0.075-0.27,0.113c0.057-0.024,0.115-0.048,0.173-0.072c-0.214,0.088-0.437,0.157-0.657,0.228
			c-0.108,0.035-0.217,0.064-0.327,0.095c-0.062,0.018-0.117,0.054-0.178,0.074c0.023-0.01,0.046-0.019,0.069-0.029
			c-0.016,0.007-0.032,0.013-0.049,0.02c-0.024,0.01-0.049,0.02-0.073,0.029c-0.048,0.02-0.075,0.056-0.112,0.08c0,0,0,0-0.001,0
			c-0.089,0.033-0.187,0.093-0.206,0.194c-0.011,0.057,0.01,0.1,0.044,0.136l-0.001-0.001c0,0.001,0.001,0.001,0.002,0.001
			c0.021,0.023,0.043,0.045,0.076,0.058c0.006,0.002,0.012,0.004,0.018,0.007c0.131,0.105,0.336,0.156,0.481,0.171
			c0.189,0.019,0.386,0.034,0.575,0.022c0.202-0.012,0.404-0.058,0.601-0.101c0.131-0.028,0.254-0.071,0.37-0.14
			c0.14-0.083,0.293-0.171,0.381-0.31C130.38,107.377,130.424,107.242,130.347,107.094z"/>
	</g>
</g>
</svg>
